<?xml version="1.0" standalone="no"?>
<!DOCTYPE svg PUBLIC "-//W3C//DTD SVG 20010904//EN"
 "http://www.w3.org/TR/2001/REC-SVG-20010904/DTD/svg10.dtd">
<svg version="1.0" xmlns="http://www.w3.org/2000/svg"
 width="1024.000000pt" height="1024.000000pt" viewBox="0 0 1024.000000 1024.000000"
 preserveAspectRatio="xMidYMid meet">
<metadata>
Created by potrace 1.14, written by Peter Selinger 2001-2017
</metadata>
<g transform="translate(0.000000,1024.000000) scale(0.100000,-0.100000)"
fill="#000000" stroke="none">
<path d="M0 5120 l0 -5120 244 0 244 0 78 123 c42 67 89 134 103 148 28 29
303 206 441 285 47 26 153 89 235 140 83 50 193 116 245 146 52 30 149 89 215
130 66 41 172 103 235 138 63 35 136 76 163 92 26 15 49 28 52 28 6 0 65 -117
65 -129 0 -5 -9 -11 -21 -14 -15 -4 -19 -2 -15 9 7 19 -23 94 -38 94 -7 0 -47
-23 -89 -50 -43 -28 -115 -68 -160 -89 -110 -52 -125 -64 -107 -86 12 -14 12
-18 0 -25 -8 -5 -11 -12 -7 -17 5 -4 12 -1 17 7 8 13 14 10 36 -12 l28 -27
-25 3 c-13 1 -50 11 -81 21 -52 17 -59 17 -81 2 -21 -13 -196 -296 -278 -447
-26 -49 -46 -58 -88 -41 -19 8 -38 33 -63 84 -20 40 -38 79 -41 87 -3 10 -24
-6 -68 -55 -35 -38 -84 -89 -109 -113 -120 -114 -134 -124 -142 -103 -2 5 -57
-45 -123 -111 -79 -79 -109 -114 -88 -104 56 28 296 177 367 229 138 99 272
140 184 55 -19 -18 -92 -109 -163 -203 -70 -94 -133 -176 -138 -182 -8 -10
607 -13 3064 -11 1691 0 3059 3 3042 5 -18 2 -33 8 -33 13 0 8 158 142 409
348 69 57 157 133 194 168 46 43 76 64 93 64 28 0 60 -19 200 -121 56 -41 193
-139 304 -219 110 -80 234 -171 273 -202 l72 -57 353 -1 353 0 53 42 c30 24
62 55 72 70 11 16 23 28 28 28 5 0 51 -32 102 -70 52 -39 103 -70 116 -70 15
0 -19 28 -103 85 -91 63 -125 82 -127 70 -2 -8 -7 -15 -12 -15 -19 0 -207 53
-267 76 -68 26 -85 25 -63 -1 11 -13 10 -14 -3 -10 -8 4 -18 1 -22 -5 -5 -8
-15 -6 -33 6 -25 16 -180 141 -192 154 -11 12 -117 79 -160 100 -25 12 -46 24
-48 25 -1 1 2 14 7 27 7 19 6 31 -6 47 -19 27 -12 36 16 21 15 -7 21 -8 21 0
0 6 -22 21 -50 34 -27 13 -55 28 -62 33 -7 6 -69 25 -138 42 -68 17 -136 39
-150 48 -14 9 -68 53 -120 98 -52 45 -105 88 -118 97 -22 15 -21 17 90 73 62
32 140 72 173 88 33 16 85 45 115 63 31 19 70 38 87 43 l32 9 6 -46 c28 -207
30 -213 87 -266 29 -26 87 -73 128 -104 41 -31 116 -86 165 -122 50 -37 169
-116 265 -175 96 -59 212 -131 256 -161 100 -65 392 -283 418 -313 18 -20 29
-21 173 -21 l153 0 0 5120 0 5120 -827 -1 c-456 0 -822 -3 -815 -6 21 -8 2
-23 -31 -24 -25 -1 -42 -12 -80 -54 -63 -69 -53 -90 15 -33 69 58 99 73 110
56 5 -7 7 -85 4 -173 -3 -93 -1 -167 4 -175 5 -8 10 -13 10 -10 0 3 3 52 6
110 3 58 10 122 14 142 4 20 4 55 0 78 -5 26 -4 38 2 32 13 -13 28 -169 28
-305 0 -65 4 -116 8 -113 4 2 6 -10 4 -27 -2 -18 1 -43 7 -57 11 -23 11 -23 7
10 -2 19 3 66 11 104 24 109 37 63 29 -100 -6 -108 -4 -139 9 -169 8 -21 20
-76 25 -124 6 -47 17 -129 25 -181 46 -291 21 -710 -65 -1092 -53 -233 -133
-436 -210 -528 -20 -25 -45 -60 -54 -78 -16 -32 -16 -34 3 -65 12 -18 36 -63
55 -101 18 -37 36 -64 39 -59 4 6 6 79 6 164 0 204 -1 195 11 183 5 -5 15
-107 21 -227 13 -259 4 -384 -42 -556 -33 -124 -49 -157 -128 -266 -28 -38
-51 -74 -51 -78 0 -5 14 -7 30 -5 41 6 38 -10 -7 -49 -46 -38 -36 -57 27 -51
36 3 39 2 23 -10 -10 -7 -28 -15 -40 -19 -37 -9 -27 -31 27 -61 57 -31 62 -42
20 -42 -35 0 -39 -19 -16 -73 19 -45 93 -137 118 -146 15 -5 18 -10 10 -15 -7
-4 -10 -11 -7 -15 2 -5 9 -110 15 -234 10 -198 9 -230 -5 -263 l-16 -38 -49
52 c-28 29 -58 52 -70 52 -17 0 -20 7 -21 53 -1 28 -6 133 -13 232 l-11 180
-49 23 c-143 68 -552 237 -654 271 -121 40 -298 79 -478 106 -231 34 -541 15
-829 -50 -82 -19 -195 -43 -250 -55 -55 -12 -169 -44 -253 -71 -84 -27 -157
-49 -162 -49 -26 0 -189 -90 -229 -126 -25 -23 -71 -83 -101 -133 -74 -124
-120 -183 -155 -200 -16 -8 -74 -16 -129 -19 -60 -3 -93 -8 -84 -13 29 -16
123 -21 178 -10 30 7 61 12 68 13 6 1 10 3 8 6 -2 2 5 15 17 28 12 14 38 51
58 84 20 33 40 56 44 52 5 -4 5 -2 2 4 -4 7 9 36 29 65 44 65 58 81 48 56 -3
-9 0 -25 7 -34 12 -14 11 -15 -9 -9 -21 7 -23 5 -26 -26 -1 -16 56 -19 66 -4
5 7 8 4 8 -6 0 -10 4 -18 9 -18 5 0 7 9 4 20 -7 25 3 26 16 2 8 -15 2 -30 -29
-71 -93 -124 -140 -277 -155 -504 -6 -99 -20 -156 -39 -169 -6 -4 -7 -10 -4
-14 4 -4 18 0 31 9 26 17 37 53 37 126 l1 46 16 -45 c8 -25 33 -92 54 -149 45
-120 47 -136 14 -98 -21 23 -25 25 -25 10 -1 -17 -1 -17 -11 0 -5 9 -7 22 -4
27 3 6 1 10 -5 10 -6 0 -8 5 -5 10 3 6 2 10 -4 10 -6 0 -8 7 -5 15 4 8 1 15
-5 15 -6 0 -11 -5 -11 -12 0 -6 -3 -8 -7 -4 -5 4 1 14 11 22 11 8 21 24 23 35
3 18 -3 15 -36 -17 -21 -21 -45 -44 -53 -51 -19 -14 -43 0 -35 22 4 9 3 14 -2
11 -8 -5 -34 44 -37 69 -6 49 -22 80 -59 114 -58 54 -121 71 -256 71 l-107 0
-11 33 c-6 17 -19 73 -30 122 -10 50 -20 97 -22 105 -3 12 9 16 59 18 95 5 74
22 -28 22 -106 0 -180 14 -214 41 -13 11 -64 74 -111 142 -100 139 -115 155
-182 184 -76 34 -390 124 -503 144 -49 9 -65 15 -47 17 19 2 31 11 38 29 13
35 -2 55 -45 58 l-38 2 4 -43 c4 -52 9 -50 -125 -29 -172 27 -374 37 -607 30
-318 -9 -467 -21 -525 -40 -162 -55 -548 -211 -596 -240 -69 -42 -222 -113
-311 -145 l-68 -24 0 -85 c0 -102 17 -377 25 -401 4 -11 -8 -25 -37 -44 -59
-38 -59 -38 -78 207 -15 192 -14 238 8 244 9 2 28 20 42 40 26 36 40 52 84 92
19 17 24 27 16 35 -7 7 -14 6 -22 -2 -14 -14 -38 -16 -38 -3 0 5 13 14 29 19
30 10 68 56 89 106 12 27 12 28 -12 22 -32 -8 -42 26 -15 50 10 9 19 25 19 34
0 9 9 25 20 35 29 27 25 35 -19 35 -50 0 -60 14 -21 30 17 7 30 16 30 20 0 5
-34 54 -75 109 -126 168 -206 353 -236 546 -7 45 -13 175 -13 295 -1 201 0
217 20 250 l21 35 -32 65 c-125 250 -245 825 -245 1170 0 264 13 693 21 673 8
-23 27 -38 36 -30 3 3 0 36 -6 74 -21 123 -28 217 -21 263 7 45 7 45 9 -17 2
-105 40 -245 41 -152 1 18 7 52 15 74 12 33 12 51 3 97 -9 44 -9 68 2 111 8
36 10 77 6 117 -7 57 -6 62 14 67 13 4 23 16 27 35 7 34 23 48 23 20 0 -11 9
-22 21 -25 22 -6 39 23 39 67 0 27 -40 68 -47 49 -8 -21 -22 -15 -16 7 5 20 0
20 -606 20 l-611 0 0 -5120z m1119 4726 c-2 -2 -13 8 -23 22 l-19 27 24 -22
c12 -12 21 -24 18 -27z m5853 -3469 c20 -56 24 -79 15 -82 -6 -2 -61 -6 -122
-10 -316 -18 -686 -89 -987 -189 -73 -25 -136 -42 -139 -38 -10 10 -62 143
-57 146 5 5 448 130 598 170 188 49 439 84 595 82 l70 -1 27 -78z m-3305 -104
c106 -16 194 -31 197 -34 5 -5 -37 -145 -45 -153 -2 -2 -89 8 -192 23 l-189
26 6 40 c3 28 2 34 -4 20 -5 -11 -9 -30 -9 -42 -1 -18 -6 -21 -38 -17 -64 7
-280 24 -301 24 -16 0 -20 9 -25 58 -3 31 -9 65 -13 76 -7 18 0 19 207 13 159
-4 263 -13 406 -34z m-1007 2 c0 -8 -2 -15 -4 -15 -2 0 -6 7 -10 15 -3 8 -1
15 4 15 6 0 10 -7 10 -15z m1395 -91 c255 -71 288 -88 368 -196 114 -155 155
-223 111 -187 -22 18 -56 20 -50 2 3 -7 1 -13 -4 -13 -6 0 -10 10 -11 23 -1
16 -4 12 -11 -13 -14 -49 -28 -61 -17 -14 11 50 11 54 -1 54 -5 0 -7 -7 -4
-15 4 -8 1 -15 -5 -15 -6 0 -11 8 -11 18 0 14 -2 15 -10 2 -6 -9 -6 -18 0 -24
6 -6 10 -14 10 -19 0 -5 -20 15 -45 45 -52 62 -59 68 -118 106 -44 27 -44 28
-32 63 7 19 16 53 19 75 l7 40 -98 23 c-131 29 -261 69 -268 82 -8 12 7 9 170
-37z m3200 34 c4 -4 -2 -64 -13 -135 -11 -70 -24 -152 -27 -180 -4 -29 -11
-55 -16 -58 -5 -3 -50 16 -101 43 -51 27 -120 59 -153 72 -33 13 -66 28 -72
33 -9 7 -13 44 -13 124 l0 115 194 -3 c107 -2 197 -7 201 -11z m179 -29 c50
-12 95 -24 99 -28 6 -6 -39 -226 -50 -240 -1 -2 -50 18 -109 44 -105 49 -105
49 -100 79 3 17 8 51 11 76 11 82 14 90 36 90 12 0 63 -9 113 -21z m-4234 -74
c0 -17 -55 -194 -65 -211 -7 -11 -52 -37 -102 -57 -184 -76 -314 -124 -317
-118 -9 14 -36 132 -51 221 -9 52 -18 102 -21 111 -6 20 45 34 166 48 80 9
390 14 390 6z m3175 -15 c4 -11 10 -100 15 -198 5 -97 11 -186 15 -197 4 -15
-8 -37 -46 -82 -28 -35 -55 -63 -60 -63 -5 0 -32 21 -61 48 -78 70 -220 188
-241 198 -16 9 -15 12 12 38 37 36 344 275 353 276 4 0 10 -9 13 -20z m-2345
0 c0 -5 -4 -10 -9 -10 -6 0 -13 5 -16 10 -3 6 1 10 9 10 9 0 16 -4 16 -10z
m1500 -50 c0 -5 -5 -10 -11 -10 -5 0 -7 5 -4 10 3 6 8 10 11 10 2 0 4 -4 4
-10z m-1823 -97 c83 -62 244 -205 241 -214 -2 -5 -64 -58 -139 -118 l-137
-109 -56 57 -57 57 25 142 c31 178 43 222 60 222 7 0 36 -17 63 -37z m884
-180 c13 -15 16 -22 7 -14 -9 7 -22 10 -27 7 -5 -4 -9 3 -8 14 1 11 2 20 2 20
1 0 12 -12 26 -27z m-84 -245 c-2 -13 -4 -5 -4 17 -1 22 1 32 4 23 2 -10 2
-28 0 -40z m3520 5 c-3 -10 -5 -2 -5 17 0 19 2 27 5 18 2 -10 2 -26 0 -35z
m472 -10 c34 -35 39 -49 70 -183 17 -80 41 -185 52 -233 12 -49 18 -91 16 -94
-3 -3 -16 11 -29 31 -37 58 -58 47 -39 -22 6 -20 6 -30 0 -27 -22 14 -3 -48
44 -145 17 -35 84 -78 141 -93 65 -16 69 -32 10 -43 -70 -13 -67 -32 5 -40 62
-7 120 -33 74 -34 -28 0 -53 -10 -53 -20 0 -5 25 -12 56 -16 30 -3 52 -10 47
-14 -12 -11 -161 -31 -187 -24 -14 3 -28 -1 -37 -12 -13 -16 -9 -17 61 -11
l75 7 -40 -22 -40 -21 34 -9 c43 -12 32 -21 -51 -42 -60 -16 -67 -20 -58 -36
12 -23 82 -35 147 -25 47 7 47 6 31 -12 -11 -12 -50 -26 -108 -37 -90 -19
-110 -36 -42 -36 62 0 73 -17 16 -25 -27 -3 -60 -9 -74 -12 -23 -6 -23 -7 10
-13 l35 -6 -25 -14 c-14 -8 -38 -20 -55 -27 -35 -14 -20 -17 60 -13 50 2 54
-4 13 -24 -12 -6 -23 -17 -26 -23 -5 -18 43 -17 102 1 46 14 47 14 31 -4 -9
-10 -41 -29 -71 -42 -57 -25 -68 -38 -31 -38 12 -1 -21 -18 -73 -38 -52 -20
-86 -38 -75 -39 11 -1 52 -5 90 -9 l70 -6 -55 -25 c-126 -58 -180 -86 -180
-94 0 -5 6 -9 13 -10 6 0 3 -4 -8 -8 -36 -14 50 -34 122 -28 73 5 92 -7 34
-23 -21 -5 -50 -19 -63 -30 l-23 -19 49 -1 c82 0 42 -13 -50 -16 -52 -1 -91
-7 -98 -14 -8 -10 -2 -11 32 -6 23 3 42 4 42 2 0 -3 -19 -16 -42 -30 l-42 -25
27 -6 c15 -4 27 -11 27 -16 0 -4 -27 -27 -60 -49 -33 -22 -60 -44 -60 -48 0
-4 30 -5 66 -4 88 5 105 -12 28 -27 -33 -6 -72 -15 -89 -20 l-30 -8 45 -12
c99 -25 322 -127 485 -221 93 -54 337 -220 390 -266 42 -36 19 -23 -130 76
-237 158 -410 252 -616 334 -107 44 -169 57 -169 37 0 -5 44 -31 98 -57 53
-26 151 -74 217 -106 188 -94 431 -256 539 -360 l61 -59 -115 84 c-255 187
-400 272 -681 401 -166 76 -214 92 -173 58 20 -17 44 -53 44 -66 0 -3 -21 -6
-47 -6 l-48 -1 33 -28 c17 -15 32 -30 32 -32 0 -3 -21 -6 -47 -7 -25 -1 -48
-4 -51 -6 -10 -11 9 -38 39 -54 172 -94 372 -223 484 -311 84 -65 225 -200
268 -256 19 -25 -3 -7 -58 44 -175 165 -402 332 -578 425 -47 25 -88 46 -91
46 -14 0 83 -169 182 -318 118 -176 139 -199 313 -348 92 -79 209 -203 279
-294 19 -25 -39 30 -130 121 -152 154 -334 309 -346 296 -3 -3 9 -49 26 -103
49 -154 161 -642 160 -697 -1 -6 -23 12 -49 42 l-49 54 -49 -28 c-46 -27 -149
-94 -373 -241 -58 -38 -108 -70 -112 -72 -3 -2 -30 43 -58 100 -29 57 -56 107
-60 111 -4 5 1 41 11 80 46 175 141 576 146 620 4 34 2 51 -6 57 -7 4 -43 36
-80 71 -38 35 -83 74 -102 87 -19 13 -65 45 -102 72 -81 58 -131 78 -152 60
-8 -7 -15 -19 -15 -26 0 -8 -5 -14 -12 -14 -14 0 -48 -30 -48 -43 0 -5 8 -6
18 -3 15 5 15 4 -2 -8 -18 -14 -16 -20 43 -132 34 -64 60 -119 57 -122 -7 -6
-3 -12 -44 69 -18 37 -46 88 -63 114 -33 52 -25 51 -137 18 -39 -11 -51 -18
-43 -26 18 -18 13 -24 -21 -30 -42 -6 -72 6 -109 42 -16 16 -82 69 -146 117
-65 48 -134 100 -153 114 -66 49 -361 230 -440 270 -53 27 -81 36 -86 29 -5
-8 -10 -6 -16 5 -5 9 -16 16 -23 16 -8 0 -15 4 -15 9 0 12 -100 52 -112 45
-10 -7 49 -48 267 -187 77 -49 183 -126 235 -171 148 -127 181 -151 215 -153
93 -5 176 -36 189 -69 6 -17 -8 -34 -28 -34 -6 0 -1 -7 10 -15 19 -14 19 -14
-1 -14 -11 0 -37 3 -58 8 -35 8 -37 8 -24 -7 57 -68 96 -121 109 -147 8 -16
35 -66 61 -110 49 -84 140 -285 133 -292 -2 -3 -43 73 -89 169 -47 95 -100
194 -117 221 -36 53 -132 140 -158 142 -10 0 -23 5 -31 9 -21 13 -37 -10 -20
-30 13 -16 12 -16 -9 -5 -13 7 -26 10 -28 8 -8 -7 68 -87 83 -87 7 0 10 -7 7
-15 -4 -8 1 -17 10 -21 9 -3 16 -14 16 -23 0 -9 38 -68 85 -129 47 -62 85
-114 85 -116 0 -2 26 -43 58 -92 94 -143 92 -147 -5 -12 -26 37 -92 126 -146
197 l-99 131 -116 1 c-65 0 -131 5 -148 12 -17 7 -58 23 -93 36 -91 35 -162
127 -113 146 9 3 59 15 111 25 81 16 111 29 111 50 0 3 -25 29 -54 59 -50 49
-54 51 -52 27 2 -17 -2 -26 -10 -26 -10 0 -14 13 -14 39 0 34 -7 46 -57 97
-32 31 -98 89 -148 128 -232 185 -275 207 -414 213 -84 4 -94 2 -78 -10 163
-133 345 -324 408 -429 48 -81 69 -104 69 -78 0 6 5 10 10 10 6 0 10 -7 10
-15 0 -8 -7 -15 -15 -15 -12 0 -12 -5 0 -37 31 -87 97 -229 110 -239 9 -6 36
-9 63 -6 62 5 173 -16 149 -29 -10 -6 -51 -5 -107 2 -50 6 -93 10 -95 7 -2 -2
0 -21 6 -42 6 -21 9 -40 6 -42 -8 -9 -65 94 -77 141 -19 75 -111 264 -171 352
-32 46 -119 144 -216 241 -153 152 -187 180 -180 150 2 -13 -16 -14 -51 -3
-16 5 -21 13 -17 24 3 8 3 12 -1 8 -4 -4 -13 1 -19 10 -12 17 -205 61 -269 62
l-30 1 22 -20 c12 -11 28 -20 36 -20 8 0 27 -5 43 -12 15 -6 32 -10 36 -9 15
3 81 -22 111 -43 25 -17 28 -23 23 -58 -7 -49 -13 -56 -37 -40 -27 17 -60 15
-60 -3 0 -26 -42 -17 -79 18 -20 17 -28 23 -18 11 9 -11 17 -24 17 -27 0 -13
-84 6 -140 30 -30 14 -93 38 -140 55 -106 37 -171 75 -232 132 -28 26 -59 46
-75 48 -16 2 -27 8 -25 16 1 7 -3 12 -10 11 -21 -4 -76 34 -88 60 -11 24 -5
61 10 61 5 0 2 13 -7 28 -15 27 -15 31 9 83 14 30 49 86 78 124 28 39 70 100
91 137 36 62 50 74 152 142 112 74 198 148 232 199 10 15 15 30 12 33 -3 3
-27 -6 -54 -20 -52 -26 -60 -25 -85 12 -15 22 -14 26 18 74 19 27 34 56 34 64
0 7 9 18 20 24 21 11 28 40 10 40 -5 0 -10 5 -10 10 0 6 13 10 28 10 31 0 68
32 57 49 -3 6 -3 11 2 11 15 0 100 -45 115 -61 27 -27 220 -195 268 -233 144
-114 207 -157 258 -176 31 -12 59 -25 62 -28 3 -4 25 -20 50 -36 l45 -30 -30
-12 c-17 -7 -39 -13 -51 -14 -11 0 -28 -6 -38 -13 -17 -13 -17 -14 8 -30 32
-22 36 -21 36 3 0 13 7 20 20 20 12 0 20 -7 20 -17 0 -10 13 -32 28 -48 31
-34 128 -79 137 -64 23 37 507 -52 1129 -207 222 -55 267 -64 301 -56 l40 9
-30 13 c-16 8 -46 24 -65 36 -64 40 -564 178 -779 215 -134 23 -291 57 -270
58 27 2 273 -37 403 -64 67 -13 192 -45 280 -70 87 -25 164 -45 170 -45 7 0
68 -16 137 -36 68 -20 176 -51 239 -69 63 -18 122 -35 130 -39 11 -5 15 1 16
21 1 16 5 39 9 53 5 18 4 21 -3 11 -6 -8 -17 -11 -28 -7 -16 6 -16 8 -4 16 8
6 22 10 31 10 30 0 67 50 88 117 12 37 21 73 21 81 0 20 18 76 42 133 20 47
30 135 16 155 -16 23 5 54 53 75 47 22 63 39 37 39 -7 0 -28 14 -46 31 l-33
30 14 48 c18 63 10 77 -61 97 -181 50 -366 122 -358 138 3 6 29 70 58 142 29
72 57 131 63 130 15 -2 158 -184 217 -277 67 -107 99 -149 112 -149 6 0 5 5
-2 12 -20 20 -14 56 14 74 26 18 27 33 13 209 -1 11 1 50 5 87 9 89 1 93 -68
33 -6 -5 -37 -32 -69 -58 -31 -27 -57 -55 -57 -64 0 -22 -11 -14 -68 50 -34
37 -52 66 -52 83 0 14 -4 23 -8 20 -4 -2 -14 -1 -22 4 -11 7 -8 30 18 132 17
67 46 184 63 258 34 144 49 181 44 104 -2 -26 -10 -51 -17 -55 -28 -18 29 -8
108 19 l81 28 -18 64 c-30 110 -33 148 -12 153 55 14 85 7 122 -30z m-472 -60
c-3 -10 -5 -2 -5 17 0 19 2 27 5 18 2 -10 2 -26 0 -35z m-3347 -43 c6 0 -1
-17 -15 -37 -14 -21 -25 -46 -25 -55 0 -10 -4 -18 -8 -18 -12 0 -42 -56 -34
-65 4 -4 -5 -6 -20 -3 -39 7 -26 -6 21 -22 l39 -13 -43 -101 c-23 -55 -56
-125 -73 -155 l-30 -54 3 36 c2 20 -1 37 -6 37 -6 0 -8 -8 -5 -18 5 -14 1 -18
-21 -17 -25 0 -28 3 -28 37 0 20 -3 34 -7 31 -5 -2 -8 -13 -8 -24 0 -10 -7
-19 -15 -19 -12 0 -12 7 4 48 10 26 31 95 46 152 15 58 29 106 30 108 2 2 13
-1 24 -8 15 -7 27 -8 39 -1 14 8 14 11 2 12 -8 1 -22 1 -32 0 -9 -1 -19 2 -22
7 -3 5 4 8 16 8 15 -1 24 9 34 34 7 19 13 29 13 23 1 -18 21 -16 21 1 0 7 9
25 21 40 11 14 19 34 18 43 -1 10 1 26 6 36 7 16 10 14 26 -12 10 -17 23 -31
29 -31z m155 40 c3 -5 -1 -10 -10 -10 -9 0 -13 5 -10 10 3 6 8 10 10 10 2 0 7
-4 10 -10z m-35 -10 c0 -5 -7 -10 -16 -10 -8 0 -12 5 -9 10 3 6 10 10 16 10 5
0 9 -4 9 -10z m-50 -20 c-20 -13 -33 -13 -25 0 3 6 14 10 23 10 15 0 15 -2 2
-10z m-3214 -109 c-12 -23 -20 -78 -17 -118 1 -7 13 -13 29 -13 15 0 51 -11
81 -25 30 -14 56 -23 59 -20 3 3 0 15 -5 28 -6 13 -14 55 -17 93 -8 86 4 63
33 -66 42 -187 99 -399 149 -555 24 -73 27 -96 19 -120 -13 -40 -24 -51 -23
-23 1 13 -5 23 -11 22 -7 -1 -26 -2 -43 -2 -35 -2 -40 -18 -7 -25 20 -5 19 -5
-3 -4 -30 2 -53 -11 -44 -24 3 -5 10 -7 15 -4 5 4 9 -1 9 -9 0 -8 9 -23 19
-33 14 -13 18 -29 16 -58 -3 -37 -2 -38 11 -21 16 23 19 40 4 31 -5 -3 -10 -1
-10 5 0 6 8 9 18 6 12 -3 26 9 48 42 17 26 37 48 45 50 10 2 33 -29 64 -85
102 -186 171 -270 271 -333 56 -35 90 -52 193 -91 21 -9 18 -12 -44 -44 -36
-19 -86 -46 -109 -60 -71 -42 -181 -74 -310 -90 -159 -21 -169 -24 -160 -44 3
-9 10 -29 14 -46 8 -36 30 -78 74 -149 18 -28 36 -64 40 -79 4 -16 16 -31 30
-36 12 -5 37 -23 54 -41 l32 -31 77 22 c43 12 171 52 285 89 113 38 279 87
369 110 181 46 481 110 518 110 47 0 86 23 125 72 47 60 63 67 132 56 48 -7
57 -6 91 18 25 17 49 25 73 23 52 -3 60 -1 60 16 0 8 -12 18 -27 21 -16 4 -36
12 -46 19 -16 11 -7 20 85 85 57 41 128 92 158 114 65 48 207 188 310 306 66
76 109 108 124 93 11 -12 -8 -33 -30 -33 -31 0 -31 -13 1 -34 14 -9 25 -25 25
-36 0 -10 5 -22 10 -25 6 -3 10 -17 10 -31 0 -22 23 -70 41 -84 13 -11 19 -61
9 -80 -13 -25 -26 -25 -75 0 -21 11 -41 18 -43 15 -8 -7 36 -69 75 -106 48
-46 138 -111 183 -134 42 -22 71 -53 109 -121 16 -28 58 -82 93 -120 34 -38
72 -88 82 -111 18 -41 18 -44 1 -88 -9 -25 -14 -53 -11 -61 9 -25 -11 -51 -49
-64 -27 -9 -37 -19 -44 -45 -11 -40 -74 -101 -156 -151 -58 -35 -116 -59 -240
-102 -33 -11 -67 -23 -76 -26 -13 -6 -15 -1 -11 25 l5 32 -24 -21 c-12 -12
-30 -22 -40 -22 -9 0 -22 -7 -29 -15 -7 -8 -27 -15 -44 -16 -30 0 -83 -17 -60
-18 29 -2 22 -32 -14 -56 -39 -27 -58 -32 -46 -13 5 7 3 8 -6 3 -7 -4 -16 -2
-21 6 -6 10 -9 11 -9 2 0 -7 -7 -13 -16 -13 -9 0 -27 -26 -46 -65 -17 -37 -32
-64 -35 -62 -8 9 40 115 81 177 24 36 58 89 76 118 20 33 39 52 51 52 10 0 19
-6 19 -12 0 -9 3 -10 8 -2 4 6 16 15 26 21 16 9 6 10 -45 9 -119 -5 -144 -17
-244 -120 -94 -95 -271 -303 -330 -385 -19 -26 -44 -69 -57 -96 -12 -28 -24
-54 -26 -59 -3 -5 7 -6 20 -3 25 7 26 5 33 -66 3 -39 12 -78 17 -85 8 -9 8
-16 0 -24 -16 -16 -15 -28 2 -28 18 0 32 -38 19 -51 -6 -6 -112 -13 -236 -16
l-226 -6 -58 -66 c-32 -36 -84 -97 -116 -136 -74 -88 -85 -98 -62 -58 11 18
63 85 116 149 54 65 96 121 93 126 -3 5 -9 6 -14 3 -5 -3 -21 6 -36 20 -15 14
-32 25 -38 25 -6 0 -2 -7 9 -16 19 -14 19 -14 -5 -10 -14 2 -29 5 -35 5 -5 1
-3 6 5 11 13 8 11 11 -7 16 -13 4 -23 10 -23 14 0 18 32 18 84 -1 69 -24 98
-24 119 -1 16 17 13 19 -73 36 l-90 19 -43 -39 c-23 -22 -70 -73 -104 -114
-62 -76 -193 -276 -193 -294 0 -5 -2 -7 -5 -4 -3 3 15 48 40 100 42 84 86 146
219 304 l35 41 -39 26 c-35 22 -148 63 -154 55 -2 -2 -25 -33 -53 -69 -27 -36
-83 -119 -124 -183 -128 -201 -133 -216 -83 -255 33 -26 30 -37 -3 -16 -16 10
-23 12 -16 5 7 -8 9 -20 3 -35 -5 -13 -6 -26 -3 -29 4 -3 1 -6 -5 -6 -7 0 -12
-12 -13 -27 l0 -28 -16 23 c-17 24 -17 23 -40 -45 -78 -225 -76 -237 40 -427
20 -33 34 -62 31 -65 -8 -8 -164 157 -207 219 -21 30 -22 22 -2 -16 8 -16 15
-40 15 -53 0 -25 -39 -101 -51 -101 -5 0 -22 46 -40 102 -17 57 -49 161 -71
231 l-41 128 83 206 c45 114 99 232 119 263 21 30 40 62 43 70 3 8 47 71 97
139 50 68 91 126 91 130 0 4 -18 8 -40 9 -36 3 -54 -6 -153 -74 -62 -42 -150
-106 -197 -143 -117 -90 -438 -413 -539 -541 -131 -166 -131 -150 -1 25 183
245 548 588 745 700 28 15 64 39 80 53 l30 25 -30 -7 c-16 -4 -60 -25 -97 -46
-38 -22 -68 -35 -68 -30 0 4 24 22 53 38 68 38 82 55 62 72 -8 7 -15 19 -15
26 0 8 -14 23 -32 34 l-31 19 -51 -26 c-214 -109 -517 -339 -847 -643 -113
-104 -113 -105 -50 -32 35 40 110 115 165 166 239 220 358 310 684 519 39 26
72 51 72 57 0 6 -16 8 -42 4 -38 -5 -41 -4 -26 9 18 15 14 27 -9 27 -7 0 -32
-12 -54 -26 -45 -28 -62 -25 -34 6 11 13 15 27 11 44 -4 16 -1 26 9 30 8 3 15
10 15 15 0 6 -7 8 -16 4 -10 -4 -20 0 -26 10 -5 10 -15 17 -22 17 -38 0 -467
-281 -663 -434 -67 -53 -125 -96 -128 -96 -10 0 97 96 197 177 95 77 266 193
448 303 102 61 154 100 146 107 -2 2 -22 0 -45 -6 -47 -10 -50 -7 -19 26 18
19 20 28 12 41 -6 9 -20 18 -30 20 -41 7 -47 11 -34 27 10 12 10 18 0 30 -18
22 -29 20 -132 -25 -143 -62 -325 -168 -550 -322 -49 -32 -88 -55 -88 -51 0
28 373 272 560 367 52 27 110 58 128 69 l34 20 -20 20 c-19 18 -25 19 -68 8
-102 -26 -383 -177 -716 -384 -60 -37 -108 -65 -108 -63 0 24 449 305 640 400
238 118 264 141 162 141 -70 0 -73 10 -7 29 30 9 53 21 50 26 -9 15 -87 22
-147 12 -67 -10 -76 -1 -18 18 44 15 50 25 19 35 -33 11 -17 28 49 55 34 14
62 28 62 32 0 14 -66 19 -110 9 -66 -15 -69 -14 -28 15 34 24 36 28 21 39 -15
12 -14 15 17 34 19 11 40 23 45 25 17 6 3 12 -85 32 -83 20 -84 21 -57 34 36
17 34 30 -3 30 -17 0 -47 7 -67 15 -19 8 -45 15 -57 15 -20 0 -20 1 4 20 14
11 33 20 42 20 38 0 24 19 -30 39 -56 21 -129 70 -106 71 6 0 31 -7 54 -15 24
-8 45 -13 47 -11 6 6 -88 81 -134 107 -24 13 -43 27 -43 32 0 12 40 8 72 -9
45 -23 206 -75 188 -61 -8 7 -24 23 -35 36 l-20 24 30 -7 c38 -8 23 3 -60 46
-55 29 -58 32 -35 38 22 5 17 10 -50 47 -41 23 -88 47 -105 53 -42 17 -16 23
48 11 51 -9 157 -1 212 16 20 6 20 6 0 13 -11 4 -44 11 -73 15 -31 4 -50 11
-46 17 4 7 -5 8 -25 3 -23 -5 -31 -3 -29 6 4 15 -62 37 -114 38 -42 1 -47 7
-20 27 16 12 16 13 0 19 -27 11 -21 22 17 35 57 19 128 62 115 70 -7 4 10 25
46 55 68 58 107 135 69 135 -19 0 -19 14 -1 43 8 12 22 39 31 61 l16 38 -36
-6 -37 -7 26 34 c23 30 56 106 56 128 0 5 -7 9 -15 9 -21 0 -19 49 5 112 24
63 24 69 6 62 -21 -8 -25 38 -8 120 12 63 17 73 33 69 17 -5 17 -8 5 -32z
m2971 -8 c-3 -10 -5 -4 -5 12 0 17 2 24 5 18 2 -7 2 -21 0 -30z m3500 -65 c-3
-7 -5 -2 -5 12 0 14 2 19 5 13 2 -7 2 -19 0 -25z m-2882 -28 c104 -33 129 -52
155 -115 20 -50 30 -60 52 -56 5 0 19 -22 32 -49 19 -38 21 -50 10 -50 -8 0
-14 -4 -14 -9 0 -14 30 -42 39 -36 8 4 35 -44 29 -51 -2 -1 -19 10 -37 27 -39
34 -51 36 -51 10 0 -22 16 -107 25 -136 4 -13 0 -10 -12 8 -28 43 -92 58 -94
23 0 -21 -1 -21 -9 -1 -8 19 -9 19 -9 -2 -1 -13 -6 -23 -12 -23 -8 0 -10 15
-6 48 l6 47 -45 -50 c-75 -83 -109 -136 -93 -146 8 -5 19 -9 25 -9 18 0 114
-122 114 -145 0 -4 11 -21 25 -39 16 -22 22 -40 19 -56 -5 -20 -3 -22 5 -10
10 13 11 13 12 0 1 -8 1 -19 0 -23 -1 -5 3 -6 9 -2 5 3 13 -2 17 -11 4 -10 2
-19 -5 -22 -7 -2 -12 -13 -12 -24 0 -18 -4 -20 -32 -14 -100 22 -132 19 -204
-13 l-69 -32 45 6 c142 19 177 18 214 -5 38 -23 50 -38 17 -21 -20 11 -81 -3
-81 -19 0 -5 -10 -12 -22 -16 -13 -4 -49 -24 -80 -45 -62 -43 -74 -46 -97 -25
-24 20 -68 28 -74 13 -4 -9 -7 -9 -18 1 -7 6 -32 12 -56 12 -29 0 -73 13 -133
40 -86 39 -90 40 -115 24 -14 -9 -25 -12 -25 -7 0 6 31 26 69 45 l68 36 -50 5
c-48 6 -52 5 -113 -43 -58 -46 -62 -48 -68 -27 -4 15 2 30 19 47 29 30 32 42
10 33 -23 -8 37 90 89 148 23 26 58 75 76 109 19 34 41 72 48 83 7 12 10 33 7
47 -10 42 -39 110 -48 110 -5 0 -36 -21 -69 -46 -33 -25 -58 -42 -56 -37 45
91 46 121 3 101 -14 -6 -25 -16 -25 -23 0 -6 -7 -12 -15 -12 -8 0 -15 4 -15 9
0 4 23 56 51 115 101 217 112 235 146 249 17 8 34 18 38 23 7 13 110 51 160
60 54 9 145 -2 230 -29z m2872 -32 c-3 -8 -6 -5 -6 6 -1 11 2 17 5 13 3 -3 4
-12 1 -19z m-2613 -26 c-6 -4 -14 -14 -17 -22 -4 -10 -6 -8 -6 8 -1 15 5 22
17 22 10 0 13 -3 6 -8z m2603 -34 c-3 -8 -6 -5 -6 6 -1 11 2 17 5 13 3 -3 4
-12 1 -19z m-10 -50 c-3 -8 -6 -5 -6 6 -1 11 2 17 5 13 3 -3 4 -12 1 -19z
m-2449 -33 c-3 -3 -9 2 -12 12 -6 14 -5 15 5 6 7 -7 10 -15 7 -18z m2439 -17
c-3 -8 -6 -5 -6 6 -1 11 2 17 5 13 3 -3 4 -12 1 -19z m-20 -80 c-3 -8 -6 -5
-6 6 -1 11 2 17 5 13 3 -3 4 -12 1 -19z m-2547 -18 c0 -5 -2 -10 -4 -10 -3 0
-8 5 -11 10 -3 6 -1 10 4 10 6 0 11 -4 11 -10z m2510 -117 c-32 -95 -69 -175
-124 -266 -26 -42 -44 -82 -41 -87 3 -6 -2 -10 -11 -10 -10 0 -50 -27 -89 -59
-40 -33 -89 -70 -109 -82 -27 -16 -36 -27 -33 -40 3 -12 0 -19 -9 -19 -8 0
-14 5 -14 10 0 18 -38 11 -103 -19 -68 -31 -217 -71 -360 -95 -118 -21 -302
-32 -310 -19 -4 7 39 12 121 15 217 9 502 81 676 171 162 83 309 268 388 484
38 105 51 117 18 16z m-1742 -18 c29 -14 56 -25 61 -25 9 0 21 -23 21 -41 0
-5 -12 -9 -26 -9 -28 0 -72 27 -118 72 -25 24 -26 28 -9 28 11 0 43 -11 71
-25z m-73 -45 c3 -5 1 -10 -4 -10 -6 0 -11 5 -11 10 0 6 2 10 4 10 3 0 8 -4
11 -10z m-275 -194 c0 -6 -11 5 -25 24 -14 19 -25 36 -25 39 1 10 50 -53 50
-63z m-1600 -17 c-10 -33 -41 -78 -99 -143 -19 -22 -30 -41 -24 -43 11 -4 6
-43 -6 -43 -3 0 -15 7 -25 15 -23 17 -36 19 -36 5 0 -5 6 -10 14 -10 8 0 22
-8 31 -17 16 -15 14 -19 -24 -54 -22 -21 -49 -40 -61 -44 -11 -3 -20 -10 -20
-14 0 -6 -43 -31 -54 -31 -13 0 5 45 29 73 60 67 59 71 -5 21 -123 -95 -335
-189 -508 -225 -69 -14 -138 -21 -239 -21 -136 -1 -144 -2 -165 -25 -24 -26
-40 -29 -60 -10 -54 49 -111 47 -78 -3 8 -12 12 -13 19 -2 6 11 10 10 15 -3 3
-9 6 -26 6 -38 0 -18 -2 -19 -10 -7 -6 10 -10 11 -10 3 0 -30 -18 -9 -35 42
-21 59 -12 54 -133 75 -77 14 -201 51 -186 57 6 2 51 -8 100 -22 102 -30 312
-55 459 -55 281 0 534 72 742 210 103 69 257 214 302 284 17 28 31 45 31 38 0
-7 5 -12 10 -12 6 0 10 7 10 15 0 8 4 15 9 15 6 0 6 -12 1 -31z m1785 -151
c19 -12 35 -26 35 -31 0 -11 -50 17 -78 43 -12 11 -27 18 -34 14 -7 -4 -8 -3
-4 4 4 7 -14 33 -43 62 -28 28 -51 55 -51 60 0 6 32 -21 71 -59 38 -38 86 -80
104 -93z m1981 76 l1 -49 -4 45 c-2 24 -10 48 -16 53 -8 6 -7 7 3 4 11 -2 15
-18 16 -53z m-45 -80 c1 -93 -36 -309 -58 -342 -10 -17 -21 -22 -36 -19 -12 3
-87 7 -167 8 -126 2 -153 6 -208 27 -35 13 -61 27 -58 29 3 3 48 23 101 44
190 76 311 166 381 281 20 33 38 57 41 55 2 -3 4 -40 4 -83z m-2466 16 c3 -5
1 -10 -4 -10 -6 0 -11 5 -11 10 0 6 2 10 4 10 3 0 8 -4 11 -10z m2532 -82 c-3
-8 -6 -5 -6 6 -1 11 2 17 5 13 3 -3 4 -12 1 -19z m-1906 -5 c13 -17 13 -17 -6
-3 -11 8 -22 16 -24 17 -2 2 0 3 6 3 6 0 17 -8 24 -17z m-3753 -113 c19 -12
29 -25 24 -29 -5 -3 -20 -29 -32 -58 -22 -52 -22 -52 -47 -36 -13 9 -20 19
-15 22 5 3 13 17 17 31 4 14 14 33 23 43 8 9 13 18 11 20 -2 1 -18 12 -36 25
-34 23 -48 28 -39 13 3 -5 0 -11 -7 -14 -9 -3 -13 -21 -12 -51 1 -25 -1 -46
-4 -46 -3 0 -19 11 -36 24 l-30 24 44 39 44 39 -18 34 -17 35 48 -46 c27 -25
64 -56 82 -69z m3817 72 c-3 -3 -11 0 -18 7 -9 10 -8 11 6 5 10 -3 15 -9 12
-12z m176 -63 c48 -16 95 -29 105 -29 9 0 14 -3 11 -7 -9 -9 -132 25 -192 54
-56 26 -48 24 76 -18z m-1786 -7 c-6 -4 -23 -18 -40 -32 l-30 -25 29 33 c17
17 34 32 40 32 6 0 6 -3 1 -8z m-1997 -160 c16 -13 23 -26 20 -43 -4 -30 -26
-34 -72 -15 -33 14 -35 17 -25 40 7 14 17 22 25 19 8 -3 14 0 14 6 0 16 11 13
38 -7z m2195 -156 c-10 -13 -20 -20 -21 -15 -5 12 17 39 30 39 5 0 1 -11 -9
-24z m2044 -52 c-3 -3 -12 -4 -19 -1 -8 3 -5 6 6 6 11 1 17 -2 13 -5z m-4582
-364 c-3 -5 -11 -10 -16 -10 -6 0 -7 5 -4 10 3 6 11 10 16 10 6 0 7 -4 4 -10z
m3699 -344 c57 -86 83 -133 114 -206 36 -83 33 -96 -5 -28 -91 161 -135 228
-145 221 -7 -3 -8 -1 -4 5 4 7 -5 29 -19 49 -29 43 -31 55 -10 47 8 -4 39 -43
69 -88z m-1018 28 c-5 -13 -1 -14 24 -9 27 6 32 4 41 -24 10 -27 13 -29 35
-19 20 9 24 17 19 36 -5 20 -3 23 10 18 9 -3 24 -6 32 -6 13 0 13 -2 2 -17
-12 -15 -12 -16 3 -10 10 3 17 3 17 -1 -4 -24 3 -42 15 -42 24 0 29 19 12 45
-20 30 -7 33 17 5 9 -11 13 -20 9 -20 -4 0 6 -7 22 -15 40 -21 49 -19 42 10
-7 29 4 27 75 -17 25 -15 53 -28 60 -28 32 0 157 -71 205 -116 49 -48 124
-137 124 -148 0 -3 -6 -6 -14 -6 -20 0 -86 -40 -86 -51 0 -5 5 -8 11 -7 6 2
14 -3 17 -11 2 -8 0 -11 -6 -7 -6 3 -13 2 -17 -4 -4 -6 -11 -8 -16 -5 -5 4 -9
2 -9 -4 0 -16 18 -22 23 -9 2 7 7 10 11 7 4 -3 -7 -20 -23 -38 -19 -21 -31
-27 -34 -19 -3 7 -6 2 -6 -11 -1 -13 -10 -33 -20 -45 -11 -11 -47 -54 -81 -93
-33 -40 -66 -73 -72 -73 -7 0 -6 6 2 15 7 9 10 18 7 21 -9 9 -39 -24 -33 -35
3 -5 -3 -7 -15 -4 -15 4 -22 0 -26 -16 -3 -11 -11 -21 -18 -21 -7 0 -15 -5
-17 -12 -4 -10 -13 -10 -44 1 -22 7 -110 15 -207 18 -143 5 -174 3 -213 -12
l-45 -17 -42 28 c-23 16 -48 29 -55 30 -18 3 -79 44 -65 44 6 0 15 -4 18 -10
3 -5 13 -10 22 -10 20 0 -55 87 -77 90 -11 1 -12 3 -2 7 9 3 10 9 3 17 -23 27
-71 132 -71 155 0 17 -4 22 -16 17 -9 -4 -37 -11 -63 -17 -25 -7 -93 -24 -150
-40 -57 -16 -108 -26 -113 -23 -11 7 -1 58 19 97 18 36 151 102 205 102 31 0
38 3 38 20 0 22 55 65 83 65 21 0 21 2 2 47 -8 19 -15 39 -15 43 0 13 109 31
179 29 61 -2 75 1 94 19 26 25 52 29 44 8 -4 -11 4 -10 38 3 58 22 64 30 40
47 -20 15 -20 15 -1 30 27 20 60 19 52 -2z m1439 -74 c3 0 5 -4 5 -10 0 -5
-17 -7 -37 -5 -21 2 -43 4 -50 4 -7 1 -10 8 -7 16 4 8 1 15 -5 15 -6 0 -11 4
-11 10 0 5 23 1 50 -10 28 -11 53 -20 55 -20z m-437 -4 c10 -23 7 -36 -9 -36
-4 0 -5 10 -2 23 4 21 4 22 -11 3 -16 -20 -16 -20 -16 0 0 40 22 45 38 10z
m-1653 -26 c-3 -5 -14 -10 -23 -9 -14 0 -13 2 3 9 27 11 27 11 20 0z m2445
-289 c0 -10 -11 -26 -24 -34 -23 -15 -24 -15 -30 6 -8 31 -7 39 3 33 5 -3 14
1 21 9 15 18 30 11 30 -14z m1050 -46 c23 -12 23 -14 7 -21 -10 -3 -23 -2 -30
5 -6 6 -20 11 -31 11 -17 0 -18 2 -6 10 20 13 30 12 60 -5z m-2113 -11 c-3 -3
-12 -4 -19 -1 -8 3 -5 6 6 6 11 1 17 -2 13 -5z m-1337 -82 c0 -13 -12 -22 -22
-16 -10 6 -1 24 13 24 5 0 9 -4 9 -8z m-43 -23 c31 -11 42 -33 12 -24 -32 10
-79 34 -79 41 0 5 24 -1 67 -17z m110 -2 c-7 -5 0 -6 18 -3 22 5 26 4 15 -4
-13 -9 -13 -11 0 -20 8 -5 12 -10 8 -10 -9 0 -98 38 -98 43 0 1 16 3 35 3 23
0 30 -3 22 -9z m-27 -37 c18 -12 2 -12 -25 0 -13 6 -15 9 -5 9 8 0 22 -4 30
-9z m120 0 c-8 -5 -12 -10 -8 -10 3 0 14 -3 24 -7 12 -4 15 -3 10 5 -5 8 -2
10 10 5 32 -12 -11 -24 -45 -12 -34 12 -33 29 2 29 18 0 19 -2 7 -10z m-1216
-554 c168 -111 206 -135 248 -153 41 -18 48 -29 21 -36 -11 -3 -7 -5 10 -6 16
0 38 -12 50 -25 21 -23 321 -134 477 -176 35 -9 66 -24 68 -31 2 -8 37 -81 77
-164 40 -82 75 -158 78 -167 3 -9 20 -19 39 -22 62 -11 302 -26 399 -26 54 0
100 -4 103 -9 7 -11 -28 -21 -81 -21 -88 0 -484 -66 -602 -100 -19 -5 -37 -7
-41 -5 -4 3 -1 28 7 55 14 50 14 52 -8 71 -18 16 -60 26 -72 17 -2 -2 -11 3
-20 10 -9 8 -20 11 -25 8 -5 -3 -20 1 -34 8 -46 24 -152 46 -200 41 -26 -3
-58 -1 -70 5 -19 7 -15 9 25 9 26 1 47 5 47 10 0 19 -98 92 -200 149 -179 101
-322 172 -317 158 39 -100 87 -249 83 -254 -3 -3 -7 -3 -9 -1 -12 15 -49 117
-67 183 -11 44 -27 88 -35 100 -8 11 -15 34 -15 51 0 34 -56 340 -64 354 -7
10 3 41 12 41 3 0 55 -33 116 -74z m3683 -2 c-15 -8 -103 -49 -195 -91 -92
-41 -171 -79 -177 -83 -5 -5 -30 -16 -55 -26 -68 -26 -393 -175 -407 -186 -15
-12 -89 -20 -77 -8 9 9 141 68 514 230 124 54 266 117 315 139 89 40 137 55
82 25z m507 -70 c3 -8 2 -12 -4 -9 -6 3 -10 10 -10 16 0 14 7 11 14 -7z
m-4827 -196 c-3 -7 -5 -2 -5 12 0 14 2 19 5 13 2 -7 2 -19 0 -25z m44 -164
c13 -15 68 -60 122 -102 53 -41 97 -80 97 -86 0 -14 -127 -140 -157 -155 -34
-17 -36 -13 -9 16 l25 26 -43 86 c-24 47 -51 107 -61 134 -10 26 -20 47 -23
47 -3 0 -11 -8 -18 -17 -13 -16 -13 -15 -5 9 12 32 34 68 42 68 3 0 16 -12 30
-26z m3300 0 c-29 -13 -77 -31 -105 -39 -72 -22 -329 -115 -341 -125 -5 -4
-21 -11 -35 -15 -32 -9 -544 -173 -568 -182 -15 -6 -15 -5 -4 10 8 9 146 59
310 112 164 53 308 101 322 107 14 6 106 39 205 73 99 35 191 68 205 73 52 22
62 10 11 -14z m-606 -84 c-3 -5 1 -10 9 -10 9 0 16 5 16 10 0 6 4 10 10 10 5
0 7 -7 3 -16 -4 -10 -14 -14 -30 -11 -19 3 -21 2 -12 -9 6 -8 19 -14 28 -15
12 0 11 -2 -4 -9 -27 -11 -37 -12 -31 -1 3 5 -5 11 -19 13 -18 4 -25 1 -25
-11 0 -11 -10 -17 -32 -18 -118 -7 -156 -10 -183 -16 -55 -13 44 24 160 59 61
18 111 33 113 33 2 1 0 -3 -3 -9z m-315 -100 c-8 -5 -22 -9 -30 -9 -10 0 -8 3
5 9 27 12 43 12 25 0z m100 6 c0 -2 -7 -7 -16 -10 -8 -3 -12 -2 -9 4 6 10 25
14 25 6z m-60 -20 c0 -2 -7 -7 -16 -10 -8 -3 -12 -2 -9 4 6 10 25 14 25 6z
m3290 -24 c0 -4 25 -41 55 -82 58 -80 64 -94 40 -104 -10 -4 -22 10 -40 50
-14 30 -25 59 -25 65 0 6 -4 7 -10 4 -11 -7 -52 54 -44 67 7 10 24 11 24 0z
m-4946 -33 c55 -16 173 -62 194 -74 1 -1 -12 -25 -30 -52 -18 -28 -45 -74 -60
-102 -30 -55 -35 -58 -61 -38 -15 11 -15 17 4 77 11 36 26 78 35 94 8 16 13
30 12 31 -34 23 -54 35 -60 35 -5 0 -22 -29 -38 -65 -17 -36 -43 -94 -59 -129
-34 -73 -45 -84 -69 -64 -25 21 -69 38 -97 38 -19 0 -25 5 -25 23 1 35 33 98
78 150 23 26 45 53 49 60 7 12 41 36 52 37 2 0 36 -9 75 -21z m-407 -45 c-3
-3 -12 -4 -19 -1 -8 3 -5 6 6 6 11 1 17 -2 13 -5z m5220 -37 c33 -12 107 -103
97 -119 -10 -16 -87 -68 -100 -68 -15 0 -43 52 -63 116 -12 37 -12 44 5 62 22
24 20 24 61 9z m-5151 -28 c36 -22 44 -54 22 -78 -10 -11 -10 -12 -1 -7 9 5
11 2 7 -8 -8 -20 -33 -20 -58 -1 -29 22 -52 18 -74 -12 -11 -15 -24 -23 -30
-19 -18 11 -14 36 5 36 13 0 14 3 5 12 -18 18 -15 28 25 64 43 40 54 41 99 13z
m-425 -19 c-21 -18 -51 -27 -51 -15 0 5 58 33 70 34 3 0 -6 -9 -19 -19z m99
-92 c11 -10 29 -18 42 -19 l23 0 -24 -10 c-19 -8 -31 -3 -69 24 -55 39 -71 70
-23 41 18 -11 41 -27 51 -36z m4365 29 c6 -5 2 -6 -9 -3 -18 6 -101 -38 -133
-70 -8 -7 -22 -18 -31 -23 -15 -9 -15 -12 7 -27 l24 -17 -22 -9 c-14 -5 -29
-4 -39 2 -14 9 -13 10 6 5 24 -7 32 12 8 21 -19 7 -68 -25 -59 -39 5 -8 8 -7
11 1 5 17 18 15 37 -5 12 -12 19 -13 24 -4 4 6 15 9 25 5 12 -5 -27 -27 -131
-73 -156 -71 -180 -81 -189 -80 -3 0 -17 -7 -32 -16 -25 -14 -25 -14 3 9 130
109 475 350 484 338 3 -4 11 -11 16 -15z m156 6 c13 -16 12 -17 -3 -4 -17 13
-22 21 -14 21 2 0 10 -8 17 -17z m89 -55 c0 -6 -6 -5 -15 2 -8 7 -15 14 -15
16 0 2 7 1 15 -2 8 -4 15 -11 15 -16z m-150 -18 c0 -5 -5 -10 -11 -10 -5 0 -7
5 -4 10 3 6 8 10 11 10 2 0 4 -4 4 -10z m-60 -10 c0 -12 -28 -25 -36 -17 -9 9
6 27 22 27 8 0 14 -5 14 -10z m-4197 -73 c-6 -11 -43 22 -43 39 0 7 6 14 13
17 13 4 38 -42 30 -56z m4237 53 c-20 -13 -33 -13 -25 0 3 6 14 10 23 10 15 0
15 -2 2 -10z m-150 -47 c-8 -3 -23 -10 -32 -15 -11 -5 -18 -5 -18 1 0 10 23
18 50 19 13 0 13 0 0 -5z m-3932 -349 c50 -100 61 -150 37 -168 -15 -11 -21
-9 -41 11 -28 28 -29 33 -9 33 20 0 20 49 -1 78 -29 41 -44 28 -44 -38 0 -46
-4 -62 -16 -67 -13 -5 -15 -14 -10 -44 9 -57 -10 -47 -24 12 -13 53 -8 142 9
163 9 10 27 91 24 106 0 3 -3 52 -6 110 l-6 105 23 -110 c16 -75 36 -136 64
-191z m-1124 126 c-20 -27 -38 -50 -40 -50 -7 0 27 63 44 83 33 37 30 14 -4
-33z m3496 -84 c0 -2 -7 -7 -16 -10 -8 -3 -12 -2 -9 4 6 10 25 14 25 6z m-110
-96 c-36 -33 -69 -60 -75 -60 -10 0 36 45 94 92 59 49 48 29 -19 -32z m565
-240 c3 -5 2 -10 -4 -10 -5 0 -13 5 -16 10 -3 6 -2 10 4 10 5 0 13 -4 16 -10z
m93 -95 c-3 -3 -9 2 -12 12 -6 14 -5 15 5 6 7 -7 10 -15 7 -18z m-18 -25 c0
-5 -5 -10 -11 -10 -5 0 -7 5 -4 10 3 6 8 10 11 10 2 0 4 -4 4 -10z"/>
<path d="M4386 5837 c3 -10 9 -15 12 -12 3 3 0 11 -7 18 -10 9 -11 8 -5 -6z"/>
<path d="M8307 5154 c4 -10 21 -41 38 -69 17 -27 40 -70 50 -95 24 -54 65
-102 65 -76 0 20 -122 227 -145 246 -13 11 -14 10 -8 -6z"/>
<path d="M6060 3950 c-8 -16 -8 -20 3 -20 18 0 39 24 30 33 -11 12 -22 8 -33
-13z"/>
<path d="M5714 3895 c-18 -14 -18 -14 3 -15 23 0 39 15 25 24 -5 3 -18 -1 -28
-9z"/>
<path d="M5840 3905 c0 -13 29 -35 45 -35 29 0 13 35 -18 38 -15 2 -27 0 -27
-3z"/>
<path d="M6103 3893 c-18 -6 -16 -23 1 -23 17 0 30 16 19 23 -5 2 -14 2 -20 0z"/>
<path d="M6550 3731 c0 -5 6 -12 13 -14 9 -4 9 -8 -2 -15 -7 -5 -11 -18 -7
-28 11 -38 -7 -47 -75 -40 -91 9 -204 25 -279 38 -64 11 -139 13 -148 3 -9 -9
43 -53 71 -60 23 -6 27 -4 27 14 0 25 24 27 60 6 64 -37 93 -44 225 -54 86 -6
169 -18 215 -31 150 -44 803 -261 838 -279 69 -35 119 -44 154 -27 54 27 71
24 277 -53 46 -17 87 -29 89 -26 3 3 -1 5 -9 5 -8 0 -3 8 11 18 17 11 24 24
22 36 -3 14 0 17 13 12 13 -4 16 -2 11 9 -3 8 -1 15 4 15 15 0 12 17 -5 34
-16 16 -20 27 -7 24 14 -4 52 13 52 23 0 36 -27 50 -203 107 -391 128 -1347
328 -1347 283z"/>
<path d="M5875 3700 c-9 -14 11 -30 37 -30 16 0 34 17 26 25 -11 12 -57 15
-63 5z"/>
<path d="M5684 3679 c-3 -6 -17 -8 -29 -5 -13 3 -27 2 -30 -4 -10 -16 77 -11
99 5 19 14 19 15 -6 15 -15 0 -30 -5 -34 -11z"/>
<path d="M5788 3683 c7 -3 16 -2 19 1 4 3 -2 6 -13 5 -11 0 -14 -3 -6 -6z"/>
<path d="M6000 3680 c0 -5 5 -10 11 -10 5 0 7 5 4 10 -3 6 -8 10 -11 10 -2 0
-4 -4 -4 -10z"/>
<path d="M6622 3493 c2 -13 63 -36 248 -93 209 -65 540 -184 660 -237 126 -56
396 -199 432 -229 54 -44 149 -96 168 -91 11 3 17 0 14 -7 -2 -6 35 -35 83
-63 111 -65 257 -138 248 -124 -3 6 -1 11 5 11 7 0 14 -9 17 -21 4 -15 8 -17
14 -8 13 21 -98 108 -121 94 -13 -8 -60 17 -85 45 -32 37 -276 192 -323 206
-47 15 -177 78 -202 98 -8 7 -42 23 -75 36 -75 30 -127 60 -102 60 24 0 21 17
-5 23 -13 4 -26 0 -32 -9 -10 -13 -17 -12 -53 6 -23 11 -46 20 -50 20 -4 0
-21 10 -38 21 l-30 21 39 -6 c21 -3 46 -12 56 -21 20 -18 43 -20 38 -3 -2 6
-17 16 -34 21 -16 4 -38 12 -49 16 -54 21 -85 28 -85 20 0 -5 8 -9 18 -9 14 0
15 -2 2 -10 -9 -6 -18 -6 -24 0 -6 6 -17 10 -26 10 -9 0 -38 14 -64 32 -55 36
-226 100 -439 164 -163 48 -211 55 -205 27z m1828 -813 c8 -5 10 -10 4 -10 -7
0 -22 9 -35 21 -19 16 -20 18 -4 10 11 -6 27 -15 35 -21z"/>
<path d="M8030 3483 c1 -16 36 -50 58 -55 13 -4 20 -2 16 4 -4 7 5 8 25 3 46
-10 38 11 -11 29 -66 23 -88 28 -88 19z"/>
<path d="M5743 3463 c9 -2 23 -2 30 0 6 3 -1 5 -18 5 -16 0 -22 -2 -12 -5z"/>
<path d="M5814 3461 c3 -5 36 -21 73 -37 38 -15 72 -31 78 -36 5 -4 16 -8 24
-8 11 0 12 3 4 11 -14 14 -6 39 12 39 7 0 16 -11 19 -24 6 -26 50 -48 101 -51
17 -1 47 -9 69 -19 21 -9 55 -16 75 -16 40 0 78 -18 191 -85 41 -25 134 -74
205 -109 132 -65 369 -222 605 -401 82 -63 110 -74 161 -69 47 6 139 42 139
55 0 5 -35 6 -77 3 -48 -4 -95 -2 -122 5 -56 16 -50 19 24 12 57 -6 142 2 154
15 8 8 -137 145 -196 185 -100 69 -91 80 15 19 38 -22 77 -49 87 -60 22 -25
119 -29 132 -6 9 16 8 16 61 16 37 1 37 1 -33 36 -38 19 -101 44 -140 55 -38
11 -104 33 -145 49 -41 17 -139 50 -217 75 -78 24 -177 58 -220 76 -154 62
-204 79 -304 104 -111 28 -177 57 -186 81 -4 12 -14 14 -39 10 -18 -4 -65 0
-106 9 -143 30 -224 45 -324 60 -118 17 -127 18 -120 6z m1546 -456 c13 -14
21 -25 18 -25 -3 0 -17 11 -32 25 -15 14 -23 25 -18 25 5 0 19 -11 32 -25z"/>
<path d="M6595 3394 c-3 -26 -9 -52 -11 -58 -3 -8 16 -17 48 -25 55 -14 290
-96 628 -221 107 -39 231 -84 276 -100 93 -34 212 -57 240 -46 15 6 8 11 -35
27 -30 10 -59 23 -63 27 -10 10 93 -2 114 -13 49 -25 -43 35 -109 71 -183 101
-894 364 -1019 378 l-62 7 -7 -47z m270 -87 c7 -6 5 -8 -5 -4 -8 3 -32 11 -52
18 -21 7 -38 16 -38 21 0 9 80 -20 95 -35z m-44 -7 c24 -11 55 -20 68 -20 24
0 24 0 5 16 -10 9 -2 6 19 -5 21 -12 58 -26 83 -32 44 -11 60 -29 26 -29 -25
0 -234 68 -246 80 -15 15 -3 12 45 -10z"/>
<path d="M5454 3301 c16 -17 32 -29 34 -26 7 7 -18 34 -42 47 -16 8 -14 3 8
-21z"/>
<path d="M7689 3243 c0 -5 -2 -18 -5 -30 -3 -18 10 -29 76 -66 45 -25 91 -48
103 -51 12 -3 16 -3 10 0 -21 9 -15 23 7 17 21 -5 54 20 42 32 -4 4 3 4 16 1
38 -12 24 1 -30 27 -43 21 -199 77 -214 77 -2 0 -4 -3 -5 -7z"/>
<path d="M6250 3206 c0 -3 55 -42 123 -87 67 -45 159 -110 204 -145 122 -94
280 -172 202 -101 -62 58 -382 288 -446 321 -29 15 -83 22 -83 12z"/>
<path d="M8110 3171 c-22 -43 -12 -67 40 -101 47 -30 79 -35 52 -8 -7 7 -12
21 -12 31 0 25 -27 71 -51 85 -15 10 -20 8 -29 -7z"/>
<path d="M8047 3066 c-10 -8 -15 -20 -11 -30 4 -11 1 -16 -11 -16 -9 0 -13 -4
-10 -10 12 -20 305 -210 305 -198 -1 18 -25 48 -39 48 -6 0 -30 12 -53 27 -41
25 -42 27 -20 36 27 12 22 39 -17 80 -52 56 -116 84 -144 63z"/>
<path d="M7854 2893 c-123 -61 -124 -57 17 -149 174 -112 389 -327 499 -496
24 -37 45 -66 46 -65 6 6 -67 319 -87 372 -12 33 -29 80 -38 105 -9 25 -20 50
-23 56 -12 19 -132 88 -150 87 -10 -1 -17 3 -15 9 1 6 -39 35 -89 63 l-91 52
-69 -34z"/>
<path d="M6765 2803 c39 -39 73 -69 77 -66 10 5 -34 50 -97 98 -46 35 -45 33
20 -32z"/>
<path d="M7490 2849 c0 -5 19 -30 43 -54 41 -42 43 -43 72 -30 l30 14 -28 1
c-16 0 -26 3 -23 8 7 12 -16 38 -51 55 -38 20 -43 21 -43 6z"/>
<path d="M6850 2811 c14 -12 41 -30 60 -42 l35 -21 -20 22 c-11 12 -38 31 -60
42 l-40 19 25 -20z"/>
<path d="M6857 2737 c-3 -8 1 -14 8 -14 7 0 11 6 8 14 -3 7 -6 13 -8 13 -2 0
-5 -6 -8 -13z"/>
<path d="M8365 2740 c3 -5 11 -10 16 -10 6 0 7 5 4 10 -3 6 -11 10 -16 10 -6
0 -7 -4 -4 -10z"/>
<path d="M4631 5424 c0 -11 3 -14 6 -6 3 7 2 16 -1 19 -3 4 -6 -2 -5 -13z"/>
<path d="M1587 4643 c-4 -3 -7 -13 -7 -22 1 -13 3 -13 11 2 11 19 8 33 -4 20z"/>
<path d="M1853 4552 c-7 -4 -9 -13 -4 -21 6 -9 10 -7 14 8 3 12 4 21 4 21 -1
0 -7 -4 -14 -8z"/>
<path d="M4320 4380 c0 -5 7 -10 16 -10 8 0 12 5 9 10 -3 6 -10 10 -16 10 -5
0 -9 -4 -9 -10z"/>
<path d="M1686 4102 c-9 -15 21 -129 57 -211 21 -47 37 -90 37 -97 0 -17 27
-24 75 -19 22 3 65 7 95 10 77 8 110 15 110 25 0 4 -24 26 -52 48 -29 22 -62
48 -73 59 -40 38 -205 172 -224 183 -11 5 -22 7 -25 2z"/>
<path d="M3867 3884 c-15 -16 -5 -24 29 -24 24 0 34 4 32 13 -5 13 -50 22 -61
11z"/>
<path d="M1575 3830 c3 -5 16 -10 28 -10 18 0 19 2 7 10 -20 13 -43 13 -35 0z"/>
<path d="M3930 3677 c-59 -11 -79 -26 -54 -40 24 -14 84 1 77 18 -3 10 1 15
15 15 12 0 24 5 27 10 3 6 3 9 -2 9 -4 -1 -33 -6 -63 -12z"/>
<path d="M1768 3673 c7 -3 16 -2 19 1 4 3 -2 6 -13 5 -11 0 -14 -3 -6 -6z"/>
<path d="M3599 3675 c-3 -2 -64 -6 -135 -9 -206 -7 -621 -99 -984 -217 -102
-34 -226 -74 -276 -90 -50 -16 -100 -36 -110 -44 -18 -14 -18 -14 5 -15 19 0
21 -3 11 -15 -8 -10 -9 -23 -2 -47 6 -18 14 -46 19 -63 7 -23 14 -30 38 -31
17 -1 41 -6 55 -12 l25 -9 -32 -7 c-18 -4 -37 -5 -43 -1 -5 3 -10 1 -10 -5 0
-27 38 -19 129 28 147 76 445 194 711 282 247 83 324 112 334 128 3 5 -3 18
-14 29 -19 21 -19 21 3 27 35 9 77 7 77 -4 0 -14 44 -12 125 6 138 30 138 30
130 4 -4 -12 -3 -21 2 -19 4 2 41 17 80 33 40 16 70 33 67 37 -2 4 -43 5 -89
2 -61 -4 -85 -3 -85 6 0 11 -22 16 -31 6z m-499 -164 c-8 -5 -33 -11 -55 -15
-39 -6 -39 -6 -15 8 14 9 39 15 55 15 21 0 26 -2 15 -8z m-205 -52 c-64 -20
-190 -49 -215 -49 -8 0 28 16 80 34 60 22 113 34 145 34 l50 0 -60 -19z m-238
-45 c-3 -3 -12 -4 -19 -1 -8 3 -5 6 6 6 11 1 17 -2 13 -5z m-187 -20 c23 -14
23 -14 3 -9 -14 4 -23 2 -23 -4 0 -6 -16 -19 -35 -28 -28 -13 -37 -14 -50 -3
-25 20 -17 36 23 47 51 14 54 14 82 -3z m-246 -90 c30 -12 12 -44 -25 -44 -5
0 -9 11 -9 25 0 26 7 29 34 19z"/>
<path d="M4143 3673 c-13 -2 -23 -8 -23 -12 0 -12 76 -20 108 -12 27 7 27 8 5
19 -22 12 -47 13 -90 5z"/>
<path d="M1670 3610 c0 -13 20 -13 40 0 12 8 9 10 -12 10 -16 0 -28 -4 -28
-10z"/>
<path d="M3255 3469 c-220 -67 -435 -139 -550 -186 -97 -40 -262 -118 -305
-144 -8 -5 -39 -21 -69 -35 -29 -14 -52 -26 -50 -28 2 -2 18 -6 34 -9 17 -3
46 -10 65 -16 41 -13 72 -5 173 46 38 19 74 32 80 30 7 -2 -17 -18 -53 -36
-153 -76 -78 -75 110 1 41 17 145 59 230 95 156 64 220 86 426 142 112 31 184
41 154 21 -8 -6 -67 -26 -130 -46 -195 -60 -424 -136 -442 -145 -10 -5 -17
-15 -15 -22 1 -8 -9 -11 -31 -9 -25 3 -58 -12 -150 -64 -64 -37 -143 -85 -174
-106 -31 -21 -62 -38 -69 -38 -7 0 -9 -8 -6 -21 3 -12 0 -22 -9 -26 -21 -8
-17 -27 9 -39 17 -8 30 -5 61 14 78 48 214 112 237 112 13 0 169 72 346 160
313 154 393 189 393 169 0 -5 18 -9 41 -9 24 0 38 4 34 10 -3 6 2 10 12 10 25
1 143 59 118 60 -27 0 -7 17 30 25 27 6 28 5 12 -8 -16 -14 -15 -15 17 -21 33
-6 102 13 116 32 3 4 16 13 30 19 23 11 22 12 -20 12 -25 0 -92 -6 -150 -14
-58 -8 -154 -15 -215 -15 -95 0 -207 -12 -335 -35 -39 -7 -39 -6 49 50 25 16
48 32 51 35 8 8 43 29 68 40 20 9 31 31 15 30 -5 -1 -66 -19 -138 -41z m-802
-339 c-3 -11 -8 -20 -12 -20 -4 0 -7 9 -8 20 -1 11 4 20 12 20 8 0 11 -7 8
-20z"/>
<path d="M1718 3453 c7 -3 16 -2 19 1 4 3 -2 6 -13 5 -11 0 -14 -3 -6 -6z"/>
<path d="M4125 3440 c-3 -5 1 -10 9 -10 8 0 18 5 21 10 3 6 -1 10 -9 10 -8 0
-18 -4 -21 -10z"/>
<path d="M4360 3269 c-24 -13 -27 -18 -11 -13 20 5 23 3 17 -12 -4 -13 0 -11
14 6 17 22 26 41 18 40 -2 -1 -19 -10 -38 -21z"/>
<path d="M3390 3207 c-93 -39 -294 -143 -297 -154 -8 -24 32 -21 90 8 80 41
266 150 273 161 8 13 -7 9 -66 -15z"/>
<path d="M3440 3168 c-19 -12 -71 -41 -115 -66 -44 -24 -89 -52 -100 -63 -19
-19 -19 -19 2 -19 12 0 23 -5 25 -12 3 -8 38 9 94 44 77 49 135 79 244 126 21
9 14 11 -45 11 -53 0 -78 -5 -105 -21z"/>
<path d="M3898 3184 c-3 -3 -31 -7 -62 -10 -31 -2 -67 -9 -81 -14 -14 -5 -31
-7 -39 -4 -22 9 -151 -23 -205 -50 -25 -13 -96 -57 -157 -98 -61 -40 -138 -88
-172 -106 -33 -19 -83 -54 -111 -79 -45 -39 -49 -46 -38 -64 6 -10 17 -19 24
-19 7 0 13 -4 13 -10 0 -12 -101 -70 -112 -64 -14 9 -8 -13 7 -26 8 -7 25 -10
37 -7 12 4 29 0 38 -7 8 -7 28 -16 45 -19 32 -5 101 37 230 140 33 27 76 60
95 73 19 14 78 63 130 109 99 87 149 123 188 135 45 15 21 -14 -55 -65 -66
-45 -241 -199 -251 -221 -2 -5 -12 -8 -22 -8 -23 0 -121 -74 -180 -136 -25
-26 -39 -44 -32 -40 8 5 12 0 12 -13 0 -18 25 -34 46 -30 5 1 20 1 34 0 18 -1
21 -4 11 -10 -9 -6 -10 -11 -2 -15 6 -4 28 9 48 30 45 44 111 89 119 81 3 -3
-19 -31 -49 -64 -31 -32 -55 -59 -54 -59 1 -1 23 0 50 3 40 5 47 8 42 24 -6
17 62 148 107 209 28 37 221 251 317 352 75 78 82 88 59 88 -13 0 -27 -3 -30
-6z m-248 -119 c0 -3 -33 -26 -72 -53 -40 -26 -114 -78 -164 -115 -105 -77
-143 -88 -70 -21 64 59 120 97 220 150 88 47 86 46 86 39z"/>
<path d="M4100 3140 c-12 -16 -19 -30 -16 -30 2 0 14 14 26 30 12 17 19 30 16
30 -2 0 -14 -13 -26 -30z"/>
<path d="M4048 3046 c-34 -52 -34 -59 -7 -51 12 4 24 2 28 -4 5 -8 13 -7 27 3
19 14 19 14 -1 13 -17 -2 -20 4 -19 41 0 23 0 42 0 42 -1 0 -13 -20 -28 -44z"/>
<path d="M2978 2996 c-151 -87 -168 -100 -168 -123 0 -22 15 -32 22 -15 2 5
53 34 113 66 61 31 120 64 132 74 l23 17 -25 11 c-21 10 -33 7 -97 -30z"/>
<path d="M3070 2958 c-125 -67 -214 -129 -275 -192 -27 -29 -63 -62 -79 -74
-16 -12 -26 -25 -23 -29 4 -3 12 -1 19 4 7 6 42 20 77 31 75 25 217 112 316
192 39 31 83 65 98 75 30 19 27 31 -13 39 -18 4 -52 -9 -120 -46z"/>
<path d="M2694 2786 c-27 -25 -46 -47 -43 -50 3 -3 27 17 54 44 61 62 54 65
-11 6z"/>
<path d="M2458 2552 c-66 -74 -131 -162 -125 -168 10 -10 27 6 70 65 26 35 48
55 58 53 9 -2 34 13 55 33 37 35 38 37 19 51 -10 8 -22 14 -26 14 -4 0 -27
-22 -51 -48z"/>
<path d="M2517 2504 c-38 -31 -64 -60 -61 -66 4 -6 3 -8 -3 -5 -5 3 -30 -12
-54 -34 -24 -22 -57 -48 -72 -57 -37 -22 -81 -106 -73 -138 4 -14 2 -24 -4
-24 -5 0 -10 -20 -10 -45 0 -40 3 -46 31 -60 17 -9 33 -14 35 -12 3 2 -4 27
-15 56 -12 28 -16 51 -11 51 14 0 56 70 71 118 7 26 18 42 28 42 14 0 14 2 1
10 -13 9 -13 11 0 20 8 5 23 7 33 4 11 -3 17 0 17 10 0 9 9 16 21 16 12 0 17
4 14 11 -4 6 -14 8 -22 5 -8 -3 -11 -1 -8 5 4 5 15 7 24 4 21 -6 36 9 45 48 4
16 11 25 17 21 6 -3 8 -13 4 -22 -3 -8 0 -19 7 -23 7 -5 18 -43 23 -85 l10
-77 73 97 c39 54 72 101 72 105 0 6 -112 81 -121 81 -2 0 -34 -25 -72 -56z"/>
<path d="M2305 2359 c-4 -6 -5 -12 -2 -15 2 -3 7 2 10 11 7 17 1 20 -8 4z"/>
<path d="M5330 5016 c0 -9 5 -16 10 -16 6 0 10 4 10 9 0 6 -4 13 -10 16 -5 3
-10 -1 -10 -9z"/>
<path d="M5270 4921 c0 -5 -3 -18 -7 -28 -5 -16 -4 -16 14 2 20 20 21 35 2 35
-5 0 -9 -4 -9 -9z"/>
<path d="M4970 4817 c0 -13 -5 -28 -11 -34 -18 -18 -1 -33 31 -26 19 3 30 1
30 -6 0 -6 -7 -11 -15 -11 -8 0 -15 -4 -15 -10 0 -5 5 -10 11 -10 21 0 119 31
124 40 6 9 -118 80 -140 80 -9 0 -15 -9 -15 -23z"/>
<path d="M4720 4296 c0 -8 182 -46 221 -46 55 0 49 18 -8 24 -27 4 -73 11
-104 16 -57 10 -109 13 -109 6z"/>
<path d="M5497 2943 c3 -10 13 -27 21 -38 13 -19 14 -19 7 4 -6 18 -4 22 6 16
8 -5 5 1 -5 13 -23 26 -38 29 -29 5z"/>
<path d="M5511 2868 c15 -34 29 -36 28 -5 0 12 -3 16 -6 9 -4 -10 -9 -9 -19 5
-13 16 -13 15 -3 -9z"/>
<path d="M5510 2691 c0 -6 4 -13 10 -16 6 -3 7 1 4 9 -7 18 -14 21 -14 7z"/>
<path d="M5490 2670 c0 -5 5 -10 11 -10 5 0 7 5 4 10 -3 6 -8 10 -11 10 -2 0
-4 -4 -4 -10z"/>
<path d="M5456 2635 c-9 -14 -14 -30 -11 -35 3 -5 0 -7 -8 -4 -8 3 -18 0 -23
-7 -4 -8 -3 -10 4 -5 18 11 15 0 -13 -44 -14 -22 -30 -40 -36 -40 -5 0 -7 -4
-4 -10 12 -19 23 -10 45 35 12 25 26 42 32 39 13 -8 43 35 44 64 1 33 -11 36
-30 7z"/>
<path d="M6780 920 c-14 -11 -21 -20 -17 -20 5 0 20 9 34 20 14 11 22 20 17
20 -5 0 -20 -9 -34 -20z"/>
<path d="M6709 863 c-13 -16 -12 -17 4 -4 16 13 21 21 13 21 -2 0 -10 -8 -17
-17z"/>
<path d="M1370 10185 c80 -29 206 -75 280 -101 342 -119 529 -258 1085 -804
429 -422 515 -501 649 -602 126 -95 241 -168 263 -168 7 0 13 19 15 48 l3 47
28 -47 c31 -53 50 -63 37 -20 -17 56 -256 594 -287 645 -2 4 -2 7 1 7 17 0
184 -335 281 -565 55 -129 63 -137 91 -83 12 23 15 45 10 82 -5 42 -61 286
-82 361 -4 13 -3 17 4 10 15 -15 56 -153 92 -310 17 -77 35 -143 39 -148 14
-14 44 20 51 59 l7 39 12 -42 c6 -24 16 -42 21 -40 5 1 15 -7 23 -18 15 -19
16 -19 36 -1 11 10 25 34 31 52 17 49 30 32 30 -37 0 -55 2 -59 23 -59 31 0
44 11 60 47 l13 32 19 -34 c10 -19 21 -35 25 -35 3 0 53 9 111 19 319 59 943
71 1169 23 190 -40 212 -39 222 13 5 28 38 33 38 6 0 -21 44 -41 58 -26 4 3 9
34 12 68 l5 62 28 -57 c25 -52 57 -77 57 -45 2 97 70 401 86 384 3 -2 -4 -37
-15 -77 -30 -109 -48 -275 -32 -294 16 -20 45 -21 60 -2 6 7 18 38 27 67 16
55 79 217 116 299 57 128 112 240 115 236 2 -2 -24 -70 -58 -152 -126 -307
-149 -371 -149 -424 0 -48 2 -51 23 -48 18 2 27 18 48 78 l27 75 -3 -68 c-2
-37 0 -69 4 -71 10 -7 171 95 248 157 81 66 147 133 405 417 230 252 677 697
798 794 90 72 250 170 415 255 l100 51 -3460 -1 -3460 0 145 -54z"/>
<path d="M8158 10204 c-54 -40 -61 -56 -20 -45 15 4 56 9 92 10 71 3 168 25
184 42 15 15 -118 4 -172 -14 -48 -17 -56 -5 -12 18 37 19 38 25 3 25 -16 0
-49 -16 -75 -36z"/>
<path d="M1303 10111 l2 -68 26 7 c14 4 58 5 97 2 40 -2 72 -2 72 1 0 4 -12
13 -27 21 -32 17 -16 20 41 7 55 -13 32 4 -44 33 -36 13 -88 33 -117 45 l-52
20 2 -68z"/>
<path d="M8190 10091 c-8 -5 -39 -11 -69 -15 -90 -12 -185 -55 -285 -131 -80
-61 -292 -235 -410 -337 -41 -35 -419 -451 -576 -633 -52 -60 -129 -146 -170
-191 -42 -45 -130 -148 -197 -230 -66 -82 -130 -158 -142 -168 -26 -23 -55
-118 -47 -150 3 -13 22 -35 41 -50 19 -15 42 -40 50 -57 9 -16 22 -29 30 -29
12 0 15 -15 17 -62 1 -79 2 -80 13 -97 5 -10 4 -16 -3 -19 -7 -2 -10 -13 -6
-27 3 -12 1 -26 -5 -29 -6 -4 -11 -20 -11 -35 0 -20 7 -31 25 -39 22 -10 27
-9 41 16 10 15 38 59 63 97 25 39 48 75 50 80 16 46 168 241 178 231 3 -3 -13
-26 -35 -52 -71 -80 -253 -396 -238 -411 9 -9 50 15 92 54 43 39 47 40 39 11
-5 -20 -4 -21 5 -5 6 9 20 17 30 17 11 0 19 3 18 8 -3 7 5 12 23 12 5 0 7 -6
3 -12 -4 -7 22 15 57 50 36 34 68 62 72 62 14 0 -25 -64 -73 -120 -54 -64 -89
-117 -69 -104 20 12 69 13 69 2 0 -6 11 -3 25 6 28 18 32 11 10 -18 -35 -46
-1 -35 70 23 24 19 31 21 33 9 2 -11 10 -14 25 -10 20 5 20 4 8 -11 -15 -19
-11 -20 42 -8 34 8 53 -1 25 -12 -8 -3 -8 -6 -2 -6 9 -1 66 17 139 44 11 4 1
-7 -22 -25 -23 -19 -40 -37 -37 -41 2 -4 32 -5 67 -2 l62 4 -30 -26 c-16 -14
-40 -28 -52 -31 -13 -4 -23 -10 -23 -15 0 -13 75 -1 140 23 50 18 200 41 209
33 2 -2 -30 -13 -70 -25 -41 -12 -84 -25 -96 -30 -44 -18 -24 -30 51 -30 72 0
74 0 140 51 63 48 83 74 38 50 -12 -6 -29 -11 -39 -10 -10 0 2 8 27 17 51 19
130 63 130 72 0 12 -201 51 -365 70 -93 11 -201 27 -240 35 -38 9 -86 15 -105
15 -49 0 -80 10 -80 26 0 28 46 43 165 54 66 6 138 10 160 8 79 -4 131 2 115
12 -25 16 74 12 106 -5 16 -8 38 -15 49 -15 11 0 27 -5 35 -11 11 -7 -12 -9
-80 -5 -73 4 -89 3 -70 -5 80 -35 90 -38 95 -29 3 6 39 10 79 10 59 0 82 -5
121 -25 48 -26 142 -51 152 -41 7 6 -17 31 -37 39 -9 3 -5 6 10 6 15 1 30 -3
35 -8 6 -5 70 -28 143 -51 86 -28 136 -49 142 -60 7 -13 6 -20 -1 -22 -8 -3
-9 -15 -4 -37 6 -29 10 -32 33 -28 25 5 25 4 8 -9 -10 -7 -22 -12 -25 -10 -11
7 -10 -49 1 -61 7 -9 7 -13 -2 -13 -6 0 -20 10 -31 23 -10 12 -17 15 -14 7 4
-12 -12 -19 -72 -33 -43 -9 -91 -18 -108 -19 -42 -3 -154 12 -160 22 -3 5 7
17 22 28 26 19 27 20 5 26 -30 10 -28 21 8 36 33 14 56 37 47 47 -15 14 -100
3 -149 -20 -54 -25 -192 -140 -181 -151 4 -3 16 -6 27 -7 21 0 21 0 1 -9 -11
-5 -32 -11 -47 -14 -16 -4 -28 -13 -28 -20 0 -8 -6 -17 -12 -19 -8 -3 -6 -6 5
-6 10 -1 34 6 54 14 26 11 39 12 49 4 9 -7 21 -6 44 6 51 26 66 15 30 -23 -16
-18 -30 -37 -30 -43 0 -5 36 -9 80 -9 46 0 80 -4 80 -10 0 -5 20 -15 45 -21
25 -6 45 -15 45 -19 0 -26 -106 -74 -237 -109 -44 -12 -58 -36 -25 -43 9 -2
39 5 66 15 27 10 53 16 60 14 6 -2 -10 -11 -36 -20 -26 -8 -58 -26 -70 -38
-26 -25 -33 -26 72 13 30 12 57 25 58 29 2 5 22 9 45 8 l42 0 -40 -13 c-101
-32 -189 -96 -132 -96 25 0 169 -29 176 -35 9 -10 -67 -33 -126 -40 -35 -4
-63 -8 -63 -10 0 -2 12 -17 28 -33 15 -15 53 -59 86 -96 55 -63 131 -125 141
-114 2 2 11 36 19 75 15 70 15 268 1 306 -5 13 -3 16 8 11 12 -4 14 -1 10 15
-3 12 -10 21 -17 21 -6 1 0 7 14 15 14 8 19 14 11 15 -23 0 16 37 65 61 38 18
49 31 81 97 20 43 38 88 41 102 4 26 30 62 41 56 3 -2 6 6 6 19 0 13 -4 23 -9
22 -6 -1 -11 5 -13 14 -4 18 29 37 35 20 5 -15 29 -14 38 1 4 7 3 8 -4 4 -17
-10 -15 3 3 21 9 8 19 13 22 9 3 -3 12 -1 19 5 8 6 21 9 29 5 26 -10 17 2 -22
29 -54 36 -35 31 54 -16 85 -44 130 -76 168 -117 13 -14 26 -24 28 -22 54 70
177 296 177 326 0 14 -10 16 -87 10 -49 -4 -160 -16 -248 -26 -238 -29 -219
-30 -331 25 l-99 48 -181 3 c-112 2 -209 9 -253 18 -40 8 -157 21 -261 28
-126 8 -187 15 -184 23 3 6 -10 17 -28 25 l-33 14 45 4 c24 2 49 7 55 12 27
23 384 -14 430 -44 13 -9 30 -16 37 -15 7 0 4 4 -7 9 -18 8 -18 9 5 9 14 0 44
-4 67 -9 24 -6 71 -14 105 -19 35 -5 77 -13 95 -16 31 -7 31 -7 38 41 3 27 12
62 20 77 8 16 15 33 15 38 0 12 6 19 61 81 35 41 45 47 68 41 33 -8 105 -44
154 -77 21 -14 42 -26 47 -26 18 0 10 15 -18 31 -15 9 -74 47 -132 84 -58 38
-136 79 -174 93 -81 28 -237 46 -248 28 -10 -15 -185 -13 -200 2 -13 13 -8 14
117 13 60 0 66 1 40 10 -16 5 -100 9 -185 8 -85 -1 -216 -3 -292 -3 -75 -1
-140 -4 -144 -8 -4 -5 24 -8 62 -8 38 0 107 -5 154 -11 47 -5 132 -14 190 -19
58 -5 152 -15 210 -21 58 -6 141 -12 185 -13 73 -2 173 -19 202 -35 6 -3 -50
-5 -125 -3 -97 2 -147 8 -171 19 -26 12 -50 14 -107 8 -77 -7 -102 -25 -36
-25 20 0 44 -5 52 -10 11 -7 -1 -10 -40 -10 -31 0 -61 -5 -66 -10 -13 -13
-214 -50 -263 -49 -21 1 -28 3 -16 6 38 9 38 22 0 29 -22 4 -40 3 -44 -4 -3
-5 -22 -10 -41 -10 -38 0 -177 -28 -217 -43 -13 -5 -34 -9 -46 -9 -20 1 -18 4
15 35 31 28 46 35 80 35 24 1 68 7 98 15 l55 13 -60 1 c-33 0 -111 -4 -174 -9
-68 -6 -118 -7 -124 -1 -5 5 7 20 30 37 21 16 43 34 48 40 13 14 79 54 125 75
40 19 37 21 -65 39 -38 7 -80 17 -93 21 l-22 9 22 25 c21 25 43 32 50 17 2 -4
53 -1 113 7 61 8 100 17 87 19 -12 2 -61 -1 -109 -7 -48 -6 -88 -9 -91 -7 -4
5 51 31 87 41 14 4 20 10 13 17 -14 14 -112 38 -162 38 l-45 1 35 29 c19 16
42 29 50 29 11 0 10 -3 -4 -11 -17 -10 -16 -12 14 -25 18 -7 66 -14 106 -16
57 -1 76 2 91 16 11 9 34 17 52 17 47 0 31 15 -33 30 -87 21 -81 40 12 40 102
0 121 13 43 30 -57 12 -105 40 -68 40 8 0 17 9 20 20 3 11 12 20 20 20 25 0
158 56 150 63 -3 4 -32 7 -63 7 -31 0 -60 3 -63 6 -12 13 34 42 86 56 68 17
394 18 405 1 4 -7 37 -13 77 -14 72 -2 185 -23 213 -38 40 -22 -239 -26 -493
-6 -42 3 -26 -2 50 -15 112 -20 333 -43 345 -35 14 9 250 12 250 4 0 -5 -26
-9 -57 -9 -32 -1 -89 -5 -128 -10 -38 -5 -113 -14 -165 -20 -128 -14 -230 -32
-230 -40 0 -9 125 -27 314 -45 88 -8 162 -17 164 -20 3 -3 -89 -6 -204 -6
-115 -1 -213 -2 -219 -4 -5 -1 -14 -3 -20 -4 -41 -7 163 -60 241 -63 36 -1 28
-3 -31 -8 -109 -9 -193 -6 -207 8 -8 8 -60 12 -162 11 l-151 -1 65 -15 c36 -8
100 -23 142 -33 60 -14 86 -16 117 -8 29 7 54 6 102 -6 l64 -16 -77 4 c-43 1
-78 -1 -78 -5 0 -14 111 -42 164 -40 28 0 65 -3 81 -8 26 -8 27 -9 7 -10 -29
-1 -19 -21 11 -21 12 0 29 -5 37 -11 12 -8 7 -9 -17 -6 -18 2 -33 2 -33 0 0
-1 15 -10 33 -18 17 -8 24 -13 14 -10 -41 11 -147 27 -159 23 -7 -3 2 -13 20
-23 18 -11 32 -22 32 -25 0 -4 -30 0 -66 7 -229 47 -424 69 -289 32 61 -16
140 -30 395 -69 30 -4 106 -27 169 -49 63 -23 122 -41 131 -41 9 0 46 30 81
68 35 37 117 122 181 189 111 116 178 200 178 221 0 6 4 12 8 14 12 5 102 125
102 137 0 5 9 12 19 16 10 3 21 15 24 26 3 13 12 19 24 17 14 -2 17 2 15 22
l-4 25 21 -24 c20 -23 81 -38 81 -19 0 4 4 8 9 8 4 0 11 -30 15 -67 5 -49 4
-68 -6 -74 -7 -5 -14 -4 -16 1 -5 13 -32 13 -32 0 0 -5 -9 -10 -20 -10 -11 0
-20 7 -20 15 0 8 -5 15 -11 15 -5 0 -7 -4 -4 -10 3 -5 1 -10 -5 -10 -6 0 -8
10 -4 26 5 19 4 25 -5 20 -6 -4 -11 -12 -11 -17 0 -31 -83 -80 -94 -55 -3 7
-8 6 -15 -4 -16 -23 -13 -33 9 -27 11 3 18 1 14 -4 -9 -15 124 -10 161 5 19 8
35 11 35 5 0 -5 9 -9 20 -9 18 0 20 7 20 78 0 68 -8 165 -25 312 -18 153 -156
562 -228 674 -59 93 -169 156 -271 156 -23 0 -48 -4 -56 -9z m-405 -523 c28
-15 21 -16 -152 -19 -164 -4 -184 -6 -210 -25 -44 -32 -53 -36 -53 -24 0 6 35
27 78 48 76 37 79 37 192 36 84 0 123 -5 145 -16z m-135 -68 c21 -7 19 -8 -15
-8 -22 0 -51 4 -65 8 -21 7 -19 8 15 8 22 0 51 -4 65 -8z m-93 -66 c44 -12 11
-24 -65 -24 -42 0 -108 -7 -147 -15 -83 -18 -78 -17 -70 -5 3 6 16 10 28 10
13 0 32 6 43 14 29 21 162 33 211 20z m-167 -87 c-29 -15 -107 -30 -96 -19 8
8 82 29 106 31 8 0 4 -5 -10 -12z m270 -31 c0 -21 12 -22 98 -12 86 10 224 0
201 -15 -8 -5 -42 -9 -77 -9 -71 0 -203 -20 -198 -29 2 -3 -14 -6 -35 -6 -21
-1 -43 -5 -49 -10 -6 -7 28 -9 93 -7 59 2 98 0 92 -5 -5 -5 -73 -22 -150 -37
-77 -15 -142 -30 -144 -32 -8 -8 34 -34 70 -44 20 -6 43 -18 50 -27 8 -9 10
-14 4 -11 -48 26 -352 77 -339 56 3 -4 -30 -8 -73 -7 l-78 0 41 19 c55 24 63
39 25 46 -17 4 -31 9 -31 13 0 4 23 13 51 22 46 13 60 13 119 1 64 -14 69 -14
151 12 l84 26 -60 -4 c-39 -3 -51 -2 -35 4 14 4 45 9 70 10 25 1 56 6 70 10
16 5 -21 9 -100 10 -69 1 -134 5 -145 10 -11 5 -18 10 -15 11 3 1 61 5 130 9
69 3 137 7 153 8 17 1 27 -3 27 -12z m-223 -62 c-3 -3 -12 -4 -19 -1 -8 3 -5
6 6 6 11 1 17 -2 13 -5z m1313 -134 c0 -5 -5 -10 -11 -10 -5 0 -7 5 -4 10 3 6
8 10 11 10 2 0 4 -4 4 -10z m-770 -520 c14 -4 -20 -5 -75 -2 -55 3 -109 9
-120 13 -24 10 159 -1 195 -11z m-455 -380 c44 -5 100 -16 125 -24 43 -13 40
-13 -70 -9 -63 2 -139 5 -167 8 -29 2 -53 -1 -53 -6 0 -5 11 -9 24 -9 14 0 28
-5 32 -12 4 -6 3 -8 -4 -4 -15 9 -300 -10 -315 -22 -17 -14 -137 -26 -137 -14
0 5 21 13 48 16 116 17 120 21 22 26 l-95 5 140 19 c77 10 169 24 205 32 65
13 93 12 245 -6z m-970 -201 c11 -17 0 -20 -21 -4 -17 13 -17 14 -2 15 9 0 20
-5 23 -11z m1385 -100 c38 -18 70 -36 70 -40 0 -12 1 -12 -92 15 -107 31 -119
36 -112 47 10 18 65 9 134 -22z m230 -141 c0 -5 -11 -1 -25 8 -14 9 -25 18
-25 20 0 2 11 -2 25 -8 14 -6 25 -15 25 -20z m-60 2 c0 -5 -5 -10 -11 -10 -5
0 -7 5 -4 10 3 6 8 10 11 10 2 0 4 -4 4 -10z"/>
<path d="M8537 10061 l-28 -29 20 -40 c11 -23 25 -43 30 -46 8 -6 21 62 21
115 0 36 -8 36 -43 0z"/>
<path d="M1187 10030 c-7 -33 -1 -80 15 -122 7 -19 16 -26 32 -24 45 5 48 16
16 52 -16 19 -30 44 -30 55 0 18 1 19 25 3 14 -9 25 -12 25 -7 0 10 -62 73
-72 73 -3 0 -8 -13 -11 -30z"/>
<path d="M1473 9948 c-56 -9 -117 -42 -141 -75 -32 -46 -97 -182 -130 -273
-68 -186 -115 -473 -110 -665 l3 -120 40 1 c22 1 29 -1 15 -3 -44 -8 -50 -21
-50 -100 0 -43 4 -72 9 -68 5 3 13 0 17 -6 5 -8 3 -9 -6 -4 -11 7 -12 -9 -6
-81 6 -88 30 -222 41 -233 3 -3 10 1 15 9 7 10 10 11 10 3 0 -9 20 -13 66 -13
l66 0 -4 40 c-2 22 -1 41 2 42 4 2 4 22 2 45 -3 29 -8 41 -16 36 -6 -3 -1 4
12 16 24 24 27 36 12 46 -5 3 -10 1 -10 -4 0 -6 -4 -11 -10 -11 -5 0 -10 7
-10 15 0 8 -4 15 -9 15 -5 0 -7 9 -4 20 4 13 -1 26 -13 35 -12 9 -15 18 -9 22
6 5 10 24 11 43 1 57 8 89 16 84 14 -9 27 40 15 54 -7 9 -7 16 -1 20 6 4 13
15 17 25 3 9 15 17 25 17 14 0 22 -11 30 -40 7 -27 6 -40 -1 -43 -6 -2 -4 -6
5 -9 12 -5 18 6 28 48 8 32 19 54 27 54 7 0 13 -5 13 -12 0 -6 3 -9 6 -5 3 3
68 -63 145 -146 127 -139 137 -152 119 -162 -11 -6 -54 -44 -96 -85 -61 -61
-77 -72 -86 -60 -8 13 -9 12 -5 -1 3 -10 -10 -33 -33 -58 -36 -39 -39 -40 -43
-19 -3 14 -4 11 -4 -9 1 -29 7 -36 54 -58 36 -18 50 -30 46 -40 -3 -8 0 -15 6
-15 6 0 11 5 11 11 0 5 4 8 9 5 5 -3 7 -15 4 -26 -3 -11 0 -20 6 -20 5 0 8 7
5 15 -4 8 -1 15 5 15 6 0 11 -7 11 -15 0 -8 5 -15 10 -15 6 0 10 4 10 10 0 5
7 7 15 4 14 -6 13 -8 -1 -19 -23 -16 -1 -30 24 -14 14 9 31 8 74 -5 65 -19
145 -21 185 -5 50 21 179 12 301 -19 62 -16 115 -32 119 -36 10 -10 -97 -7
-145 4 -24 6 -109 12 -190 15 -81 3 -166 7 -189 10 -45 4 -54 -4 -28 -25 19
-16 19 -21 0 -46 -15 -19 -16 -19 -14 1 4 37 -11 55 -40 49 -20 -4 -23 -3 -11
5 13 10 11 14 -10 30 -24 19 -24 19 -51 -2 -16 -12 -28 -27 -28 -34 -1 -15 31
-25 53 -17 18 7 21 -3 6 -26 -6 -10 -10 -11 -10 -2 0 6 -7 12 -15 12 -16 0
-10 -26 12 -48 7 -7 13 -33 13 -57 0 -24 5 -56 10 -70 8 -20 7 -35 -4 -56 -13
-26 -13 -29 2 -30 14 0 13 -2 -2 -8 -11 -4 -15 -10 -10 -14 15 -9 38 9 32 25
-4 9 1 14 13 14 14 0 16 -3 6 -15 -10 -12 -8 -13 13 -7 14 3 48 11 75 17 28 6
57 13 65 16 8 3 47 6 85 7 104 4 525 111 525 135 0 4 -25 13 -56 20 -32 8 -52
17 -47 22 13 13 234 34 363 34 93 0 120 -3 140 -18 24 -17 24 -17 -38 -17 -64
0 -195 -16 -222 -27 -23 -10 72 -21 190 -23 58 -1 98 -4 90 -7 -8 -3 -21 -11
-29 -17 -8 -6 -30 -16 -50 -22 -34 -11 -34 -12 -8 -13 15 -1 27 -6 27 -12 0
-6 6 -9 13 -6 19 7 108 -9 152 -27 52 -22 40 -29 -20 -11 -74 23 -123 20 -342
-21 -13 -2 -23 -8 -23 -12 0 -4 44 -6 97 -4 103 3 112 -4 33 -28 -25 -8 -65
-24 -90 -37 -25 -13 -51 -23 -57 -23 -7 0 -13 -5 -13 -10 0 -14 30 -25 39 -14
3 5 57 9 119 9 103 0 111 -1 95 -16 -17 -14 -57 -80 -51 -84 40 -26 111 -65
115 -62 2 3 -7 17 -21 32 -30 32 -32 40 -10 31 12 -4 15 -2 10 9 -8 21 21 5
54 -30 14 -15 33 -31 43 -37 16 -8 18 -7 12 12 -4 12 -20 41 -35 64 -16 22
-26 44 -24 48 2 3 -4 9 -15 13 -11 3 -24 12 -31 20 -6 8 11 3 39 -11 68 -32
75 -31 68 10 -8 52 15 79 62 71 20 -3 50 -1 68 4 23 7 37 5 53 -6 12 -8 23
-13 26 -11 6 7 -52 85 -118 157 -32 35 -56 66 -53 69 2 3 12 -1 21 -8 13 -11
17 -11 23 -1 6 10 13 7 25 -10 9 -13 16 -27 16 -32 0 -8 49 -74 77 -104 16
-18 26 -16 19 3 -6 15 -4 15 20 -1 22 -14 28 -15 35 -4 8 12 11 11 19 -1 8
-13 10 -12 10 3 0 10 4 16 9 13 5 -3 14 0 20 7 11 15 11 16 -91 223 -67 137
-99 181 -145 200 -35 15 -170 18 -238 6 l-40 -7 35 -14 c19 -7 54 -22 77 -32
24 -11 48 -19 55 -19 7 0 24 -10 38 -21 l25 -20 -40 17 c-48 19 -150 45 -138
34 4 -4 52 -27 106 -50 54 -23 96 -45 93 -47 -2 -3 -37 6 -78 20 -110 38 -224
60 -256 51 -15 -4 -74 -9 -132 -9 -58 -1 -136 -5 -175 -8 -59 -5 -63 -4 -25 3
25 6 64 14 88 20 23 5 68 10 99 10 31 0 54 2 52 4 -13 14 -171 26 -213 16 -49
-11 -72 -14 -178 -25 -38 -4 -68 -5 -68 -2 0 9 83 54 123 67 21 6 37 14 35 15
-2 2 -68 -7 -148 -21 -79 -13 -148 -23 -153 -21 -4 1 6 13 23 25 31 24 116 37
265 43 94 4 265 50 265 71 0 6 -7 7 -17 4 -9 -4 -48 -9 -87 -12 -39 -3 -89
-10 -111 -16 -40 -11 -387 -14 -404 -4 -5 3 -72 -10 -150 -30 -78 -19 -147
-34 -153 -32 -7 3 51 26 128 52 76 26 164 60 195 76 31 15 91 38 134 50 43 12
92 28 109 35 17 8 84 30 149 51 l118 37 172 -6 c147 -6 287 -24 303 -40 4 -4
-163 -65 -226 -83 -13 -4 -30 -12 -37 -19 -9 -10 -4 -14 26 -18 66 -8 207 -58
303 -107 104 -52 109 -58 218 -235 37 -60 76 -112 85 -113 14 -3 16 1 12 20
-3 12 -9 51 -13 85 l-7 63 64 -29 c35 -16 81 -33 102 -39 36 -10 38 -10 32 11
-24 83 -155 308 -203 349 -15 13 -55 57 -89 99 -104 127 -648 703 -819 866
-87 84 -193 178 -234 210 -41 32 -111 86 -154 121 -175 140 -428 227 -583 200z
m687 -387 c25 -11 56 -30 70 -41 21 -17 15 -16 -34 6 -56 25 -65 27 -170 21
-65 -3 -103 -2 -91 3 11 5 37 9 57 9 21 1 43 7 50 14 16 18 63 13 118 -12z
m83 -80 c26 -10 38 -31 17 -31 -5 0 -7 -7 -4 -15 4 -8 11 -15 18 -15 6 0 33
-18 60 -40 55 -46 52 -48 -23 -19 -58 21 -216 57 -275 61 -20 1 -36 7 -36 14
0 15 52 40 109 53 23 5 45 11 48 14 5 5 39 -3 86 -22z m75 -18 c18 -14 31 -27
29 -29 -9 -9 -52 18 -71 43 -21 29 -12 25 42 -14z m149 -179 c85 -48 95 -62
40 -59 -23 2 -69 10 -102 20 -71 21 -181 16 -234 -11 -29 -14 -31 -18 -17 -26
45 -25 82 -28 178 -12 94 16 135 14 124 -5 -4 -5 -20 -12 -36 -16 -54 -12 -31
-23 60 -31 50 -3 93 -11 96 -15 3 -5 -2 -9 -10 -9 -9 0 -16 -5 -16 -10 0 -6
18 -9 41 -8 27 2 43 -2 46 -9 3 -9 -5 -13 -24 -14 -25 0 -26 -1 -10 -12 10 -7
32 -24 49 -39 17 -15 40 -30 50 -34 10 -3 18 -10 18 -16 0 -15 -167 -1 -239
20 -60 17 -154 22 -211 10 -19 -4 -29 -5 -22 -2 6 3 12 11 12 19 0 7 7 19 16
26 14 12 14 14 -3 20 -10 4 -58 8 -108 8 -81 1 -87 2 -69 15 11 8 45 16 75 18
54 3 54 3 24 16 -16 8 -70 19 -120 26 -91 13 -97 23 -16 28 63 4 67 28 4 29
l-48 0 35 13 c19 6 34 17 33 24 -2 7 8 12 23 12 14 0 65 13 113 29 144 48 151
48 248 -5z m-120 -314 c102 10 130 9 203 -4 46 -9 87 -20 90 -25 3 -5 16 -11
30 -13 14 -2 -45 -3 -130 -3 -85 1 -189 -5 -230 -12 -41 -7 -97 -13 -125 -13
-27 0 -79 -5 -115 -11 -65 -10 -180 -4 -180 11 0 8 113 33 230 51 41 7 79 16
84 20 6 5 13 4 17 -2 5 -8 38 -8 126 1z m232 -86 c8 -7 -56 -26 -106 -31 -64
-7 -73 12 -11 20 24 3 44 10 46 16 3 9 59 5 71 -5z m-1379 -18 c0 -2 -7 -6
-15 -10 -8 -3 -15 -1 -15 4 0 6 7 10 15 10 8 0 15 -2 15 -4z m988 -6 c-19 -12
-116 -26 -107 -16 6 6 79 23 109 25 12 0 12 -2 -2 -9z m-1061 -6 c-3 -3 -12
-4 -19 -1 -8 3 -5 6 6 6 11 1 17 -2 13 -5z m1679 -9 c43 -18 44 -48 1 -53
l-28 -3 21 -19 21 -18 -28 -11 c-23 -9 -15 -10 42 -5 l70 6 -22 -24 -22 -23
25 -1 c60 -4 57 -18 -6 -24 -37 -3 -68 -2 -71 4 -4 5 -49 -5 -107 -24 -95 -31
-104 -32 -159 -21 -33 6 -101 9 -158 6 -67 -4 -93 -2 -80 4 11 5 41 10 68 10
26 1 47 6 47 11 0 6 -9 10 -20 10 -11 0 -20 5 -20 10 0 6 -10 10 -22 10 -34 0
-98 20 -98 30 0 5 15 11 33 13 17 2 -23 2 -90 -1 -68 -3 -123 -2 -123 1 0 3
44 15 98 27 122 28 235 60 229 66 -2 2 -39 -3 -83 -11 -84 -16 -215 -20 -179
-5 50 20 129 31 230 30 61 0 126 4 145 9 59 15 246 13 286 -4z m-1588 -12
c-10 -2 -28 -2 -40 0 -13 2 -5 4 17 4 22 1 32 -1 23 -4z m-18 -93 c0 -6 4 -9
9 -5 5 3 12 1 16 -5 10 -15 -35 -12 -51 4 -8 8 -14 27 -14 42 l0 27 20 -26
c11 -14 20 -30 20 -37z m-83 -12 c-3 -8 -6 -5 -6 6 -1 11 2 17 5 13 3 -3 4
-12 1 -19z m103 -49 c0 -10 -4 -19 -10 -19 -5 0 -10 12 -10 26 0 14 4 23 10
19 6 -3 10 -15 10 -26z m1790 -9 c0 -12 -17 -12 -45 0 -17 7 -15 9 13 9 17 1
32 -3 32 -9z m-1836 -16 c3 -8 2 -12 -4 -9 -6 3 -10 10 -10 16 0 14 7 11 14
-7z m1044 9 c-16 -2 -40 -2 -55 0 -16 2 -3 4 27 4 30 0 43 -2 28 -4z m592 -19
c0 -8 -10 -14 -25 -14 -29 0 -30 3 -9 24 17 18 34 13 34 -10z m-607 -101 c-18
-2 -48 -2 -65 0 -18 2 -4 4 32 4 36 0 50 -2 33 -4z m-337 -84 c19 -22 19 -22
-3 -10 -13 6 -23 16 -23 21 0 15 5 12 26 -11z m501 -275 c-3 -3 -12 -4 -19 -1
-8 3 -5 6 6 6 11 1 17 -2 13 -5z m-40 -10 c-3 -3 -12 -4 -19 -1 -8 3 -5 6 6 6
11 1 17 -2 13 -5z m-627 -34 c0 -5 -4 -10 -10 -10 -5 0 -10 5 -10 10 0 6 5 10
10 10 6 0 10 -4 10 -10z m1033 -7 c145 -6 177 -19 65 -25 -31 -2 -55 -5 -53
-8 2 -3 -49 -7 -113 -8 -65 -2 -139 -9 -166 -17 -57 -17 -112 -19 -121 -5 -4
6 11 10 37 10 61 0 79 14 37 29 -17 6 -41 11 -52 11 -36 0 -10 12 45 20 29 5
80 7 113 4 33 -2 127 -7 208 -11z m217 -63 c23 -7 22 -8 -10 -8 -19 0 -44 3
-55 8 -17 7 -15 9 10 8 17 0 41 -4 55 -8z m-1079 -46 c30 -23 31 -25 10 -22
-13 2 -30 13 -39 26 -19 28 -14 28 29 -4z m-56 -14 c3 -5 1 -10 -4 -10 -6 0
-11 5 -11 10 0 6 2 10 4 10 3 0 8 -4 11 -10z m425 -9 c0 -13 -21 -18 -138 -32
-83 -10 -105 -10 -115 1 -10 10 -7 12 13 7 14 -3 66 3 115 13 106 22 125 23
125 11z m956 -28 l1 -33 -24 22 c-29 27 -30 48 0 46 18 -2 22 -8 23 -35z
m-1226 7 c0 -13 -11 -13 -30 0 -12 8 -11 10 8 10 12 0 22 -4 22 -10z m1310
-17 c0 -13 -3 -13 -15 -3 -9 7 -19 10 -22 6 -4 -4 -1 -11 7 -16 21 -13 3 -12
-21 1 -19 10 -20 11 -3 23 21 16 54 9 54 -11z m43 -27 c4 -10 0 -12 -15 -8
-15 4 -17 7 -6 13 17 11 15 11 21 -5z"/>
<path d="M2107 9459 c-40 -16 -23 -29 36 -28 63 1 107 12 90 22 -21 13 -98 17
-126 6z"/>
<path d="M2458 9083 c6 -2 18 -2 25 0 6 3 1 5 -13 5 -14 0 -19 -2 -12 -5z"/>
<path d="M2583 8726 c-57 -12 -80 -26 -42 -26 43 1 187 25 195 33 11 11 -93 6
-153 -7z"/>
<path d="M2378 8713 c12 -2 30 -2 40 0 9 3 -1 5 -23 4 -22 0 -30 -2 -17 -4z"/>
<path d="M3171 7984 c0 -11 3 -14 6 -6 3 7 2 16 -1 19 -3 4 -6 -2 -5 -13z"/>
<path d="M1169 9863 c-4 -39 9 -104 23 -118 10 -10 -3 138 -12 148 -4 5 -9 -9
-11 -30z"/>
<path d="M1220 9854 c0 -8 5 -12 10 -9 6 3 10 10 10 16 0 5 -4 9 -10 9 -5 0
-10 -7 -10 -16z"/>
<path d="M8625 9030 c3 -5 8 -10 11 -10 2 0 4 5 4 10 0 6 -5 10 -11 10 -5 0
-7 -4 -4 -10z"/>
<path d="M1362 8748 c6 -18 28 -21 28 -4 0 9 -7 16 -16 16 -9 0 -14 -5 -12
-12z"/>
<path d="M1375 8693 c-4 -16 -8 -37 -10 -47 -2 -11 0 -15 5 -10 10 11 25 84
16 84 -3 0 -8 -12 -11 -27z"/>
<path d="M7082 8694 c9 -9 160 -46 165 -40 3 2 -26 14 -65 25 -67 20 -111 27
-100 15z"/>
<path d="M1300 8669 c0 -13 5 -31 10 -39 7 -11 8 -5 4 20 -8 43 -14 51 -14 19z"/>
<path d="M7268 8643 c7 -3 16 -2 19 1 4 3 -2 6 -13 5 -11 0 -14 -3 -6 -6z"/>
<path d="M7458 8599 c-8 -6 0 -9 23 -9 20 0 52 -3 70 -6 19 -4 32 -4 29 -1
-10 11 -109 24 -122 16z"/>
<path d="M1344 8587 c-3 -8 0 -26 6 -41 8 -21 7 -32 -1 -42 -7 -8 -10 -17 -7
-20 3 -2 0 -28 -7 -57 -7 -29 -10 -67 -7 -85 4 -29 7 -32 41 -32 40 0 70 14
53 24 -6 3 -13 2 -17 -4 -3 -5 -15 -10 -26 -10 -20 0 -20 4 -14 93 4 50 8 107
10 125 3 27 1 32 -12 28 -12 -5 -14 -1 -10 14 6 22 -1 27 -9 7z"/>
<path d="M5506 8454 c13 -36 38 -93 56 -127 17 -34 42 -107 55 -162 63 -268
123 -551 138 -655 9 -63 28 -167 42 -230 26 -120 120 -427 133 -435 15 -9 99
340 140 580 12 66 25 147 31 179 5 33 6 63 2 67 -4 4 -24 11 -43 16 -50 13
-109 101 -262 391 -139 263 -137 256 -80 304 43 36 44 43 11 67 -27 20 -111
45 -216 64 l-32 6 25 -65z"/>
<path d="M2490 8460 c-11 -7 3 -9 45 -9 48 1 54 3 30 9 -43 11 -58 11 -75 0z"/>
<path d="M2117 8430 c-38 -10 -71 -21 -75 -26 -4 -4 0 -5 8 -2 8 3 48 11 88
18 39 7 72 17 72 22 0 11 -15 10 -93 -12z"/>
<path d="M3469 8347 c16 -29 54 -101 84 -161 52 -103 57 -109 86 -110 22 -1
30 3 26 12 -12 33 -16 62 -9 62 5 0 22 12 38 26 l29 25 -34 36 c-19 19 -54 46
-79 60 -25 14 -63 37 -85 52 -88 57 -90 57 -56 -2z"/>
<path d="M4260 8337 c-30 -28 -86 -79 -125 -112 -94 -82 -140 -129 -280 -290
-173 -198 -159 -173 -141 -242 22 -84 46 -205 46 -228 0 -11 7 -33 15 -49 18
-33 16 -56 -5 -73 -30 -23 -15 -103 60 -325 77 -227 88 -254 98 -243 4 4 10
129 13 278 7 287 25 454 59 549 15 40 19 47 20 26 0 -15 -4 -38 -10 -53 -18
-48 -48 -248 -55 -367 -8 -129 1 -238 17 -203 7 17 8 16 4 -5 -13 -71 -17
-169 -8 -185 9 -17 11 -17 28 3 11 13 30 22 46 22 16 0 28 6 29 13 1 6 4 1 9
-13 5 -17 2 -35 -10 -55 -9 -16 -25 -53 -35 -82 -12 -34 -23 -49 -32 -46 -17
7 -17 -7 1 -54 8 -21 20 -58 27 -83 7 -26 14 -39 17 -30 3 8 9 18 14 21 5 3
13 30 18 60 5 30 18 77 29 104 21 54 51 213 51 269 0 23 -8 44 -25 62 -14 15
-25 33 -25 40 0 7 -9 18 -20 24 -11 6 -20 8 -20 5 0 -3 -9 -1 -20 5 -17 9 -19
14 -9 33 22 41 74 97 120 131 l46 34 21 -20 c11 -11 25 -17 32 -13 8 5 6 11
-6 20 -10 7 -15 19 -11 28 4 11 -1 21 -14 28 -12 6 -18 17 -15 25 3 8 2 14 -3
14 -4 0 -20 24 -35 53 -20 38 -30 77 -37 146 -10 93 -9 96 25 205 44 139 67
219 105 371 17 66 40 150 50 188 24 83 15 85 -59 14z m-220 -1067 c-22 -79
-40 -150 -40 -158 0 -8 -3 -13 -6 -9 -8 8 22 143 53 240 41 125 37 82 -7 -73z"/>
<path d="M6235 8319 c-49 -34 -111 -65 -147 -74 -24 -6 -28 -4 -28 14 0 23
-20 27 -50 11 -23 -12 -19 -73 9 -134 l19 -41 -6 40 c-11 77 -10 79 31 81 20
2 37 -1 37 -5 0 -8 48 -34 65 -35 5 -1 12 -12 16 -26 4 -14 7 -19 8 -12 1 7 5
11 10 8 5 -3 12 2 16 12 15 37 65 186 62 187 -1 1 -20 -11 -42 -26z"/>
<path d="M7350 8320 l-45 -7 45 -1 c25 -1 52 3 60 8 18 11 13 11 -60 0z"/>
<path d="M5125 8082 c-262 -259 -435 -426 -647 -626 -87 -82 -158 -155 -158
-162 0 -7 15 -17 33 -22 32 -8 32 -9 29 -63 -1 -30 -10 -107 -19 -172 -14
-101 -14 -125 -3 -173 13 -54 48 -105 79 -115 10 -4 15 -26 17 -79 2 -56 8
-80 23 -101 16 -21 21 -43 21 -89 0 -33 2 -60 5 -60 3 0 17 7 31 16 l25 17
-20 -53 c-20 -52 -20 -64 0 -66 5 -1 11 -2 14 -3 3 0 -1 -16 -9 -35 -16 -39
-14 -45 17 -39 34 7 79 71 75 110 -1 17 1 35 5 39 10 10 9 83 -3 123 -5 19
-12 68 -16 110 -3 42 -12 90 -20 106 -7 17 -22 62 -34 102 -18 65 -34 92 -45
81 -2 -2 -1 -37 4 -78 5 -41 7 -77 5 -79 -3 -3 -11 4 -19 15 -29 39 -46 85
-49 136 -2 29 -10 70 -19 91 -9 21 -19 79 -23 130 -7 96 0 111 16 36 l9 -44
-4 40 c-3 22 -8 58 -11 80 -6 37 -3 42 32 70 21 17 67 56 103 87 42 38 67 54
72 46 4 -6 5 -17 2 -24 -2 -7 2 -50 10 -96 9 -46 18 -114 22 -153 3 -38 15
-117 27 -174 23 -118 20 -186 -12 -278 -23 -65 -25 -77 -7 -48 11 19 12 17 18
-15 l6 -35 2 32 c0 17 5 34 10 38 26 15 22 -98 -5 -164 -8 -18 -14 -48 -14
-65 0 -30 2 -29 30 23 17 30 33 57 36 60 12 11 -8 -84 -23 -114 -17 -33 -34
-125 -23 -125 14 0 75 107 94 163 11 31 23 57 28 57 4 0 8 -1 8 -3 0 -6 -48
-140 -68 -192 -19 -48 -20 -105 -2 -105 5 0 22 14 39 31 38 37 38 34 5 -25
-36 -64 -8 -63 39 2 25 36 39 71 52 133 10 46 21 90 25 98 7 13 29 -110 31
-172 0 -18 6 -50 14 -72 l13 -40 1 35 c1 37 21 81 21 48 0 -22 23 -23 39 -4 9
11 10 25 2 53 -6 21 -11 49 -11 63 l1 25 18 -22 c11 -13 21 -23 24 -23 3 0 -4
39 -14 87 -32 147 -19 175 33 72 15 -30 32 -53 38 -51 6 1 9 -2 6 -7 -4 -5 20
-36 51 -68 43 -43 58 -54 61 -41 3 18 -18 58 -52 95 -26 30 -15 38 23 18 28
-14 32 -14 37 0 6 14 -30 119 -48 139 -4 6 -8 15 -8 20 0 6 9 -2 19 -17 19
-29 67 -60 81 -52 4 2 10 24 13 47 9 68 43 136 70 140 16 2 23 11 25 33 2 17
9 44 17 60 21 43 32 150 31 303 -1 72 2 132 7 132 5 0 25 -18 45 -41 29 -33
37 -38 44 -25 5 9 20 16 33 16 13 0 25 7 27 15 5 23 113 -67 138 -115 31 -60
28 -68 -25 -60 -25 4 -45 6 -45 6 0 -1 9 -27 20 -59 28 -80 27 -88 -12 -76
-57 16 -69 13 -62 -18 14 -66 36 -123 46 -117 5 3 4 -3 -4 -15 -11 -19 -10
-24 14 -46 33 -30 38 -31 31 -5 -3 11 -2 36 2 57 6 36 7 36 19 12 8 -15 9 -28
4 -36 -6 -7 -6 -18 -2 -24 9 -15 6 -88 -6 -142 -7 -33 -6 -45 6 -58 12 -13 13
-31 8 -84 -5 -52 -4 -66 5 -61 20 13 34 56 41 130 5 48 12 71 24 78 10 6 16
22 16 48 0 34 -2 37 -21 33 -12 -4 -22 -17 -26 -34 -3 -16 -8 -29 -12 -29 -7
0 6 160 18 205 l7 30 43 -42 c24 -24 46 -43 48 -43 12 0 -6 91 -30 152 -15 36
-33 97 -41 135 -8 37 -26 106 -40 153 -13 47 -34 132 -46 190 -11 58 -27 130
-34 160 l-12 55 -89 7 c-53 5 -92 13 -97 20 -4 7 -8 123 -8 257 l0 245 -73 73
c-40 40 -78 73 -83 73 -5 0 -108 -98 -229 -218z m189 -847 c80 -188 82 -214
40 -413 -3 -16 -10 -22 -19 -18 -8 3 -21 9 -29 12 -9 3 -17 -6 -25 -26 -6 -18
-20 -34 -31 -37 -11 -3 -20 -6 -20 -7 0 0 -6 -19 -14 -41 l-14 -39 -31 49
c-36 57 -48 107 -32 141 16 37 15 85 -3 78 -12 -5 -11 6 5 58 10 35 24 92 30
128 6 36 14 79 19 95 4 17 16 65 26 107 9 43 20 75 24 73 5 -3 38 -75 74 -160z
m109 -150 c12 -4 26 -7 30 -6 5 1 7 -9 5 -21 -2 -15 -11 -24 -25 -26 -18 -3
-24 4 -32 35 -6 21 -10 43 -10 48 1 6 3 3 6 -6 2 -10 14 -20 26 -24z m-676
-337 c-3 -8 -6 -5 -6 6 -1 11 2 17 5 13 3 -3 4 -12 1 -19z m406 -46 c18 -48
19 -57 6 -105 -28 -102 -56 -52 -58 101 -1 54 2 63 15 60 10 -2 26 -26 37 -56z"/>
<path d="M1515 8190 c3 -5 8 -10 11 -10 2 0 4 5 4 10 0 6 -5 10 -11 10 -5 0
-7 -4 -4 -10z"/>
<path d="M1580 8125 c10 -12 10 -18 0 -30 -7 -9 -8 -15 -2 -15 5 0 12 7 16 15
7 19 -3 45 -16 45 -6 0 -5 -6 2 -15z"/>
<path d="M6191 8104 c0 -11 3 -14 6 -6 3 7 2 16 -1 19 -3 4 -6 -2 -5 -13z"/>
<path d="M6182 8060 c0 -14 2 -19 5 -12 2 6 2 18 0 25 -3 6 -5 1 -5 -13z"/>
<path d="M7545 8025 c17 -7 48 -16 70 -19 40 -6 40 -6 -10 13 -58 23 -109 28
-60 6z"/>
<path d="M6171 8004 c0 -11 3 -14 6 -6 3 7 2 16 -1 19 -3 4 -6 -2 -5 -13z"/>
<path d="M1627 7993 c-4 -3 -7 -11 -7 -17 0 -6 5 -5 12 2 6 6 9 14 7 17 -3 3
-9 2 -12 -2z"/>
<path d="M1661 7984 c0 -11 3 -14 6 -6 3 7 2 16 -1 19 -3 4 -6 -2 -5 -13z"/>
<path d="M1671 7944 c0 -11 3 -14 6 -6 3 7 2 16 -1 19 -3 4 -6 -2 -5 -13z"/>
<path d="M2760 7918 c-53 -15 -54 -23 -2 -24 36 -1 41 0 22 6 -24 8 -24 8 -2
9 12 1 22 6 22 11 0 6 -1 10 -2 9 -2 0 -19 -5 -38 -11z"/>
<path d="M2600 7863 c-25 -9 -40 -18 -33 -20 6 -2 31 5 55 16 52 23 40 25 -22
4z"/>
<path d="M1267 7818 c17 -59 32 -91 33 -70 0 7 5 10 10 7 6 -3 10 -16 10 -28
0 -18 -2 -20 -11 -7 -9 12 -10 12 -5 -3 3 -10 6 -21 6 -23 0 -2 8 -4 18 -4 14
0 14 -2 3 -9 -11 -7 -12 -13 -4 -23 6 -7 13 -25 17 -40 8 -33 32 -59 50 -52 7
3 16 -2 20 -12 5 -14 4 -15 -9 -4 -22 18 -19 4 11 -50 l26 -48 52 31 c28 18
82 61 121 98 38 36 78 69 88 72 9 4 17 11 17 17 0 6 -5 8 -12 4 -7 -4 -8 -3
-4 4 4 6 13 9 21 5 21 -8 18 11 -6 38 l-20 24 7 -25 c6 -24 6 -24 -10 -5 -17
22 -22 50 -6 40 6 -3 7 1 4 10 -8 20 -57 12 -131 -21 -31 -13 -50 -18 -47 -10
3 7 21 18 40 25 20 7 34 15 31 17 -9 9 -257 61 -299 63 -10 1 -18 8 -18 16 0
8 -4 15 -9 15 -6 0 -3 -24 6 -52z m114 -8 c5 0 9 -5 9 -11 0 -5 -5 -7 -10 -4
-6 3 -13 0 -16 -9 -3 -8 -13 -17 -22 -21 -13 -5 -13 -2 3 15 10 11 13 20 7 20
-7 0 -12 5 -12 11 0 6 7 8 16 5 9 -3 20 -6 25 -6z m159 -34 c0 -2 -7 -7 -16
-10 -8 -3 -12 -2 -9 4 6 10 25 14 25 6z m-80 -40 c0 -3 -4 -8 -10 -11 -5 -3
-10 -1 -10 4 0 6 5 11 10 11 6 0 10 -2 10 -4z m170 -76 c0 -5 -4 -10 -10 -10
-5 0 -10 5 -10 10 0 6 5 10 10 10 6 0 10 -4 10 -10z m3 -37 c-6 -15 -23 -17
-23 -3 0 6 -9 6 -26 0 -31 -12 -34 -12 -34 -1 0 10 30 17 66 17 13 -1 20 -6
17 -13z"/>
<path d="M2093 7726 c-54 -12 -80 -26 -47 -26 28 0 186 29 192 35 9 9 -91 3
-145 -9z"/>
<path d="M8046 7671 c-4 -7 -5 -15 -2 -18 9 -9 19 4 14 18 -4 11 -6 11 -12 0z"/>
<path d="M2324 7580 c-33 -13 -96 -18 -121 -9 -18 7 -21 5 -16 -9 6 -15 4 -15
-10 -4 -10 9 -21 11 -32 4 -16 -8 -16 -10 0 -25 9 -10 13 -17 9 -17 -4 0 0 -6
9 -12 16 -12 16 -19 3 -82 -8 -38 -13 -73 -11 -76 3 -4 18 -10 35 -14 27 -5
30 -9 24 -32 -6 -23 -5 -25 12 -16 11 5 56 12 102 14 89 5 110 12 65 22 -36 8
-91 51 -80 63 5 4 85 10 178 11 135 3 169 6 169 17 0 19 -16 32 -80 64 -36 19
-55 35 -55 46 0 30 -21 28 -48 -4 -18 -21 -31 -28 -46 -24 -21 5 -25 14 -22
41 3 19 -29 52 -48 51 -9 0 -26 -4 -37 -9z"/>
<path d="M7346 7554 c-56 -15 -76 -30 -28 -20 79 15 93 19 98 27 7 11 -9 10
-70 -7z"/>
<path d="M2715 7520 c3 -5 13 -10 21 -10 8 0 12 5 9 10 -3 6 -13 10 -21 10 -8
0 -12 -4 -9 -10z"/>
<path d="M1314 7464 c-10 -52 1 -395 14 -424 10 -22 11 -19 13 30 1 30 1 75 0
100 -1 25 4 63 12 84 l14 40 18 -32 c11 -18 23 -32 28 -32 11 0 47 80 47 106
0 19 -115 164 -131 164 -5 0 -11 -16 -15 -36z"/>
<path d="M8275 7420 c-66 -21 -137 -39 -157 -39 -21 -1 -38 -5 -38 -11 0 -5
19 -59 41 -120 38 -100 44 -111 63 -106 12 3 51 6 89 6 l67 0 0 45 c0 52 8 55
83 29 25 -8 58 -14 74 -12 25 3 28 6 25 38 -4 59 -88 211 -115 209 -7 0 -66
-18 -132 -39z"/>
<path d="M7485 7439 c-11 -17 1 -21 15 -4 8 9 8 15 2 15 -6 0 -14 -5 -17 -11z"/>
<path d="M6093 7369 c-4 -13 -28 -105 -54 -204 -26 -99 -59 -220 -73 -270 -30
-106 -34 -154 -11 -135 8 7 15 17 15 22 0 9 61 139 176 374 35 73 64 136 64
141 0 8 -27 32 -98 86 -10 8 -15 4 -19 -14z"/>
<path d="M7560 7358 c-16 -6 -20 -12 -12 -15 18 -7 80 6 87 17 8 13 -43 12
-75 -2z"/>
<path d="M7285 7330 c-3 -6 1 -7 9 -4 18 7 21 14 7 14 -6 0 -13 -4 -16 -10z"/>
<path d="M1535 7302 c-16 -10 -35 -25 -41 -33 -12 -15 -54 -123 -54 -139 0 -6
32 -8 84 -4 57 5 85 3 90 -5 5 -8 16 -7 40 3 19 8 69 17 112 21 66 7 76 6 71
-7 -4 -13 -1 -14 19 -4 47 22 27 36 -57 41 -67 4 -79 9 -61 27 7 7 12 20 12
31 0 10 4 16 9 13 5 -3 14 7 19 24 6 16 8 31 4 33 -4 3 -54 7 -112 11 -92 6
-109 4 -135 -12z"/>
<path d="M7263 7295 c12 -9 12 -13 -1 -25 -9 -8 -23 -18 -31 -22 -11 -4 -7 -7
11 -7 28 -1 118 37 118 50 0 4 -25 9 -55 11 -39 2 -51 0 -42 -7z"/>
<path d="M3380 7216 c0 -2 8 -10 18 -17 15 -13 16 -12 3 4 -13 16 -21 21 -21
13z"/>
<path d="M2214 7171 c26 -28 2 -41 -59 -31 -27 5 -89 9 -137 9 l-88 1 93 -94
c87 -88 172 -156 196 -156 7 0 9 10 5 24 -3 13 -1 27 5 30 18 11 13 26 -9 26
-11 0 -29 9 -40 20 -11 11 -24 20 -29 20 -17 0 -21 17 -12 43 8 21 21 26 100
42 55 11 91 22 91 30 0 22 -35 42 -84 49 -47 6 -49 5 -32 -13z"/>
<path d="M7430 7161 c0 -10 39 -41 52 -41 17 0 6 17 -22 33 -16 10 -30 14 -30
8z"/>
<path d="M8530 7142 c-8 -9 -14 -20 -12 -25 1 -5 -3 -5 -9 -1 -15 9 -30 -16
-23 -39 4 -12 -9 -33 -39 -65 -25 -26 -54 -56 -64 -68 -10 -12 -52 -49 -93
-82 -41 -34 -111 -95 -155 -136 l-80 -76 25 -21 c50 -42 106 -88 150 -123 l44
-35 51 43 c27 24 77 84 111 133 52 77 62 101 72 161 7 39 12 88 12 109 0 25 3
33 9 24 7 -11 10 -11 17 0 11 17 17 219 6 219 -4 -1 -14 -8 -22 -18z m-20 -52
c0 -5 -2 -10 -4 -10 -3 0 -8 5 -11 10 -3 6 -1 10 4 10 6 0 11 -4 11 -10z"/>
<path d="M6155 7110 c-60 -95 -193 -386 -214 -469 -25 -103 -26 -108 -3 -89 9
9 37 28 62 43 l45 28 -67 -73 c-38 -40 -68 -76 -68 -81 0 -5 19 -21 43 -35 23
-15 54 -36 70 -46 l27 -19 -5 58 c-4 32 -8 68 -11 79 -5 28 19 97 55 154 16
25 41 70 57 100 15 30 42 75 59 100 18 25 39 59 47 75 17 35 24 140 9 131 -13
-8 -62 43 -73 74 -3 10 -14 0 -33 -30z m0 -250 c4 -6 11 -8 16 -5 15 10 10 -8
-11 -42 -15 -25 -27 -33 -48 -33 -15 0 -33 -5 -39 -11 -8 -8 -17 -6 -33 8
l-21 20 36 32 c38 33 51 39 39 19 -4 -7 2 -5 12 5 21 19 40 22 49 7z"/>
<path d="M7542 7050 c4 -14 122 -159 126 -156 8 8 -21 56 -62 101 -25 28 -46
53 -46 58 0 4 -5 7 -11 7 -6 0 -9 -4 -7 -10z"/>
<path d="M3410 7043 c0 -4 7 -17 15 -27 17 -23 34 -13 19 11 -12 19 -34 29
-34 16z"/>
<path d="M3783 6965 c-3 -9 -3 -29 0 -45 5 -23 2 -30 -13 -35 -18 -6 -17 -10
11 -88 34 -93 32 -92 -40 21 -30 45 -55 82 -56 82 -6 0 3 -78 10 -91 11 -20
92 -140 111 -164 15 -19 16 -19 29 -1 10 14 23 17 49 14 27 -3 37 0 41 13 10
29 -104 309 -126 309 -5 0 -12 -7 -16 -15z"/>
<path d="M6298 6943 c-52 -55 -104 -160 -67 -137 6 3 14 2 18 -4 4 -6 26 6 55
32 l49 42 -9 53 -9 52 -37 -38z"/>
<path d="M3506 6879 c89 -98 139 -147 146 -143 5 3 7 2 6 -3 -6 -19 98 -157
112 -148 4 2 7 -1 7 -8 1 -23 52 -122 52 -102 0 11 -8 40 -19 64 -11 24 -20
50 -20 58 0 34 -39 92 -110 166 -89 93 -127 124 -166 133 l-29 6 21 -23z"/>
<path d="M6515 6854 c-14 -15 -25 -35 -25 -46 0 -10 -8 -31 -17 -45 -17 -26
-17 -27 2 -19 30 12 208 77 225 83 10 3 4 9 -18 19 -18 7 -36 13 -40 12 -4 -1
-20 4 -35 10 -43 18 -66 15 -92 -14z"/>
<path d="M1390 6853 c0 -5 9 -45 20 -90 31 -130 76 -210 216 -386 12 -15 27
-27 34 -27 30 0 240 148 240 169 0 4 -18 18 -41 31 -22 14 -93 63 -157 109
-160 115 -289 201 -302 201 -5 0 -10 -3 -10 -7z"/>
<path d="M6677 6790 c-27 -22 -42 -26 -32 -10 10 16 -1 11 -16 -7 -10 -11 -10
-14 -1 -9 6 4 12 5 12 1 0 -3 -11 -10 -25 -15 -16 -6 -25 -17 -25 -30 0 -12 5
-18 10 -15 6 3 13 -1 16 -9 6 -16 34 -23 34 -8 0 4 17 14 38 22 20 8 40 16 45
18 4 2 7 -3 7 -12 0 -14 12 -15 90 -9 65 4 90 3 90 -6 0 -6 7 -11 15 -11 33 0
12 19 -48 43 -35 14 -75 23 -92 21 -24 -3 -26 -2 -7 4 30 9 31 24 1 39 -36 19
-83 16 -112 -7z"/>
<path d="M3162 6753 c-12 -13 -20 -28 -17 -34 4 -5 -1 -12 -9 -15 -24 -9 -19
-20 20 -43 38 -23 80 -28 86 -10 3 9 9 9 25 0 29 -15 43 -14 43 4 0 9 6 12 15
9 26 -10 17 8 -25 49 -27 26 -47 38 -60 34 -13 -3 -17 -1 -13 9 3 8 1 14 -5
14 -6 0 -16 2 -24 4 -7 2 -23 -7 -36 -21z"/>
<path d="M6133 6668 c-31 -34 -53 -69 -53 -86 0 -13 36 -3 51 14 10 12 41 104
35 104 -1 0 -16 -15 -33 -32z"/>
<path d="M6885 6680 c-3 -5 -2 -10 4 -10 5 0 13 5 16 10 3 6 2 10 -4 10 -5 0
-13 -4 -16 -10z"/>
<path d="M3057 6653 c-15 -17 -15 -19 2 -30 26 -16 131 -28 131 -15 0 16 -50
49 -86 56 -22 5 -34 2 -47 -11z"/>
<path d="M6945 6651 l-30 -16 45 -6 c42 -6 43 -6 10 -8 -19 -1 -44 -6 -55 -10
-12 -5 9 -7 50 -4 97 6 105 10 69 32 -47 28 -58 30 -89 12z"/>
<path d="M8036 6623 c172 -161 217 -193 76 -54 -57 55 -109 101 -115 101 -7 0
11 -21 39 -47z"/>
<path d="M6765 6629 c-81 -39 -53 -49 50 -19 89 26 98 29 74 25 -14 -2 -39 -1
-56 4 -22 6 -39 4 -68 -10z"/>
<path d="M7030 6563 c-42 -15 -70 -34 -70 -47 0 -3 43 -6 95 -6 80 0 93 2 89
15 -4 8 -14 15 -24 15 -31 0 -49 11 -43 26 3 8 4 14 2 13 -2 0 -24 -8 -49 -16z"/>
<path d="M2860 6554 c-8 -9 -37 -31 -63 -51 -27 -19 -47 -36 -45 -38 2 -1 55
1 118 6 113 8 170 20 170 37 0 7 -79 36 -155 58 -5 1 -17 -4 -25 -12z m53 -11
c-7 -2 -19 -2 -25 0 -7 3 -2 5 12 5 14 0 19 -2 13 -5z"/>
<path d="M2000 6500 c-13 -8 -12 -10 3 -10 9 0 17 5 17 10 0 12 -1 12 -20 0z"/>
<path d="M2675 6431 c-18 -7 -17 -9 10 -14 66 -13 173 -18 179 -9 3 5 -4 12
-17 16 -41 11 -152 16 -172 7z"/>
<path d="M2788 6383 c7 -3 16 -2 19 1 4 3 -2 6 -13 5 -11 0 -14 -3 -6 -6z"/>
<path d="M5077 6283 c-13 -13 -7 -31 13 -36 27 -7 25 -25 -2 -29 -33 -4 -35
-42 -3 -89 14 -22 30 -37 34 -34 19 11 18 90 -2 143 -19 51 -27 59 -40 45z"/>
<path d="M5240 6283 c0 -4 14 -20 30 -35 17 -14 30 -23 30 -20 -1 17 -60 72
-60 55z"/>
<path d="M8110 6230 c-9 -6 -10 -10 -3 -10 6 0 15 5 18 10 8 12 4 12 -15 0z"/>
<path d="M1880 6214 c0 -16 -2 -17 -10 -4 -11 18 -12 3 -1 -25 7 -17 9 -16 15
9 4 16 5 31 1 34 -3 3 -5 -3 -5 -14z"/>
<path d="M4426 6190 c-20 -22 -36 -49 -36 -59 0 -19 58 -100 73 -100 5 -1 5 4
1 10 -3 6 -1 15 6 19 13 8 20 69 9 76 -5 3 -5 12 -2 21 5 12 3 14 -8 8 -11 -6
-12 -5 -1 6 15 16 16 33 1 23 -8 -4 -9 0 -4 15 9 30 2 26 -39 -19z m44 -110
c-20 -13 -33 -13 -25 0 3 6 14 10 23 10 15 0 15 -2 2 -10z"/>
<path d="M1665 6180 l-15 -30 37 26 c50 34 50 34 20 34 -19 0 -31 -8 -42 -30z"/>
<path d="M4766 6090 c-3 -18 -6 -44 -6 -59 l0 -26 15 29 c17 32 19 55 6 74 -6
10 -10 4 -15 -18z"/>
<path d="M1841 6094 c0 -11 3 -14 6 -6 3 7 2 16 -1 19 -3 4 -6 -2 -5 -13z"/>
<path d="M1639 6039 c-6 -12 -24 -35 -40 -50 -31 -30 -35 -39 -19 -39 13 0 70
57 64 63 -3 3 -1 15 6 26 6 12 8 21 6 21 -3 0 -10 -10 -17 -21z"/>
<path d="M5371 6004 c0 -11 3 -14 6 -6 3 7 2 16 -1 19 -3 4 -6 -2 -5 -13z"/>
<path d="M5300 6000 c0 -5 5 -10 11 -10 5 0 7 5 4 10 -3 6 -8 10 -11 10 -2 0
-4 -4 -4 -10z"/>
<path d="M5480 5950 c0 -5 5 -10 10 -10 6 0 10 5 10 10 0 6 -4 10 -10 10 -5 0
-10 -4 -10 -10z"/>
<path d="M5427 5933 c-4 -3 -7 -11 -7 -17 0 -6 5 -5 12 2 6 6 9 14 7 17 -3 3
-9 2 -12 -2z"/>
<path d="M5462 5906 c7 -8 15 -12 17 -11 5 6 -10 25 -20 25 -5 0 -4 -6 3 -14z"/>
<path d="M5446 5863 c-6 -14 -5 -15 5 -6 7 7 10 15 7 18 -3 3 -9 -2 -12 -12z"/>
<path d="M1835 951 c-3 -5 -2 -12 3 -15 5 -3 9 1 9 9 0 17 -3 19 -12 6z"/>
</g>
</svg>
